%TF.GenerationSoftware,KiCad,Pcbnew,10.0.1*%
%TF.CreationDate,2026-06-24T22:53:53+05:30*%
%TF.ProjectId,RTC_Design,5254435f-4465-4736-9967-6e2e6b696361,rev?*%
%TF.SameCoordinates,Original*%
%TF.FileFunction,Legend,Top*%
%TF.FilePolarity,Positive*%
%FSLAX46Y46*%
G04 Gerber Fmt 4.6, Leading zero omitted, Abs format (unit mm)*
G04 Created by KiCad (PCBNEW 10.0.1) date 2026-06-24 22:53:53*
%MOMM*%
%LPD*%
G01*
G04 APERTURE LIST*
%ADD10C,0.125000*%
%ADD11C,0.300000*%
%ADD12C,0.100000*%
%ADD13C,0.120000*%
G04 APERTURE END LIST*
D10*
X208812712Y-111550833D02*
X209422236Y-111550833D01*
X209117474Y-111855595D02*
X209117474Y-111246071D01*
X210184140Y-111055595D02*
X209803188Y-111055595D01*
X209803188Y-111055595D02*
X209765092Y-111436547D01*
X209765092Y-111436547D02*
X209803188Y-111398452D01*
X209803188Y-111398452D02*
X209879378Y-111360357D01*
X209879378Y-111360357D02*
X210069854Y-111360357D01*
X210069854Y-111360357D02*
X210146045Y-111398452D01*
X210146045Y-111398452D02*
X210184140Y-111436547D01*
X210184140Y-111436547D02*
X210222235Y-111512738D01*
X210222235Y-111512738D02*
X210222235Y-111703214D01*
X210222235Y-111703214D02*
X210184140Y-111779404D01*
X210184140Y-111779404D02*
X210146045Y-111817500D01*
X210146045Y-111817500D02*
X210069854Y-111855595D01*
X210069854Y-111855595D02*
X209879378Y-111855595D01*
X209879378Y-111855595D02*
X209803188Y-111817500D01*
X209803188Y-111817500D02*
X209765092Y-111779404D01*
X210450807Y-111055595D02*
X210717474Y-111855595D01*
X210717474Y-111855595D02*
X210984140Y-111055595D01*
X209028426Y-113525595D02*
X209485569Y-113525595D01*
X209256997Y-114325595D02*
X209256997Y-113525595D01*
X210323664Y-113487500D02*
X209637950Y-114516071D01*
X210552235Y-114287500D02*
X210666521Y-114325595D01*
X210666521Y-114325595D02*
X210856997Y-114325595D01*
X210856997Y-114325595D02*
X210933188Y-114287500D01*
X210933188Y-114287500D02*
X210971283Y-114249404D01*
X210971283Y-114249404D02*
X211009378Y-114173214D01*
X211009378Y-114173214D02*
X211009378Y-114097023D01*
X211009378Y-114097023D02*
X210971283Y-114020833D01*
X210971283Y-114020833D02*
X210933188Y-113982738D01*
X210933188Y-113982738D02*
X210856997Y-113944642D01*
X210856997Y-113944642D02*
X210704616Y-113906547D01*
X210704616Y-113906547D02*
X210628426Y-113868452D01*
X210628426Y-113868452D02*
X210590331Y-113830357D01*
X210590331Y-113830357D02*
X210552235Y-113754166D01*
X210552235Y-113754166D02*
X210552235Y-113677976D01*
X210552235Y-113677976D02*
X210590331Y-113601785D01*
X210590331Y-113601785D02*
X210628426Y-113563690D01*
X210628426Y-113563690D02*
X210704616Y-113525595D01*
X210704616Y-113525595D02*
X210895093Y-113525595D01*
X210895093Y-113525595D02*
X211009378Y-113563690D01*
X209231759Y-121113690D02*
X209155569Y-121075595D01*
X209155569Y-121075595D02*
X209041283Y-121075595D01*
X209041283Y-121075595D02*
X208926997Y-121113690D01*
X208926997Y-121113690D02*
X208850807Y-121189880D01*
X208850807Y-121189880D02*
X208812712Y-121266071D01*
X208812712Y-121266071D02*
X208774616Y-121418452D01*
X208774616Y-121418452D02*
X208774616Y-121532738D01*
X208774616Y-121532738D02*
X208812712Y-121685119D01*
X208812712Y-121685119D02*
X208850807Y-121761309D01*
X208850807Y-121761309D02*
X208926997Y-121837500D01*
X208926997Y-121837500D02*
X209041283Y-121875595D01*
X209041283Y-121875595D02*
X209117474Y-121875595D01*
X209117474Y-121875595D02*
X209231759Y-121837500D01*
X209231759Y-121837500D02*
X209269855Y-121799404D01*
X209269855Y-121799404D02*
X209269855Y-121532738D01*
X209269855Y-121532738D02*
X209117474Y-121532738D01*
X209612712Y-121875595D02*
X209612712Y-121075595D01*
X209612712Y-121075595D02*
X210069855Y-121875595D01*
X210069855Y-121875595D02*
X210069855Y-121075595D01*
X210450807Y-121875595D02*
X210450807Y-121075595D01*
X210450807Y-121075595D02*
X210641283Y-121075595D01*
X210641283Y-121075595D02*
X210755569Y-121113690D01*
X210755569Y-121113690D02*
X210831759Y-121189880D01*
X210831759Y-121189880D02*
X210869854Y-121266071D01*
X210869854Y-121266071D02*
X210907950Y-121418452D01*
X210907950Y-121418452D02*
X210907950Y-121532738D01*
X210907950Y-121532738D02*
X210869854Y-121685119D01*
X210869854Y-121685119D02*
X210831759Y-121761309D01*
X210831759Y-121761309D02*
X210755569Y-121837500D01*
X210755569Y-121837500D02*
X210641283Y-121875595D01*
X210641283Y-121875595D02*
X210450807Y-121875595D01*
X209064616Y-116827500D02*
X209178902Y-116865595D01*
X209178902Y-116865595D02*
X209369378Y-116865595D01*
X209369378Y-116865595D02*
X209445569Y-116827500D01*
X209445569Y-116827500D02*
X209483664Y-116789404D01*
X209483664Y-116789404D02*
X209521759Y-116713214D01*
X209521759Y-116713214D02*
X209521759Y-116637023D01*
X209521759Y-116637023D02*
X209483664Y-116560833D01*
X209483664Y-116560833D02*
X209445569Y-116522738D01*
X209445569Y-116522738D02*
X209369378Y-116484642D01*
X209369378Y-116484642D02*
X209216997Y-116446547D01*
X209216997Y-116446547D02*
X209140807Y-116408452D01*
X209140807Y-116408452D02*
X209102712Y-116370357D01*
X209102712Y-116370357D02*
X209064616Y-116294166D01*
X209064616Y-116294166D02*
X209064616Y-116217976D01*
X209064616Y-116217976D02*
X209102712Y-116141785D01*
X209102712Y-116141785D02*
X209140807Y-116103690D01*
X209140807Y-116103690D02*
X209216997Y-116065595D01*
X209216997Y-116065595D02*
X209407474Y-116065595D01*
X209407474Y-116065595D02*
X209521759Y-116103690D01*
X209864617Y-116865595D02*
X209864617Y-116065595D01*
X209864617Y-116065595D02*
X210055093Y-116065595D01*
X210055093Y-116065595D02*
X210169379Y-116103690D01*
X210169379Y-116103690D02*
X210245569Y-116179880D01*
X210245569Y-116179880D02*
X210283664Y-116256071D01*
X210283664Y-116256071D02*
X210321760Y-116408452D01*
X210321760Y-116408452D02*
X210321760Y-116522738D01*
X210321760Y-116522738D02*
X210283664Y-116675119D01*
X210283664Y-116675119D02*
X210245569Y-116751309D01*
X210245569Y-116751309D02*
X210169379Y-116827500D01*
X210169379Y-116827500D02*
X210055093Y-116865595D01*
X210055093Y-116865595D02*
X209864617Y-116865595D01*
X210626521Y-116637023D02*
X211007474Y-116637023D01*
X210550331Y-116865595D02*
X210816998Y-116065595D01*
X210816998Y-116065595D02*
X211083664Y-116865595D01*
X209064616Y-119297500D02*
X209178902Y-119335595D01*
X209178902Y-119335595D02*
X209369378Y-119335595D01*
X209369378Y-119335595D02*
X209445569Y-119297500D01*
X209445569Y-119297500D02*
X209483664Y-119259404D01*
X209483664Y-119259404D02*
X209521759Y-119183214D01*
X209521759Y-119183214D02*
X209521759Y-119107023D01*
X209521759Y-119107023D02*
X209483664Y-119030833D01*
X209483664Y-119030833D02*
X209445569Y-118992738D01*
X209445569Y-118992738D02*
X209369378Y-118954642D01*
X209369378Y-118954642D02*
X209216997Y-118916547D01*
X209216997Y-118916547D02*
X209140807Y-118878452D01*
X209140807Y-118878452D02*
X209102712Y-118840357D01*
X209102712Y-118840357D02*
X209064616Y-118764166D01*
X209064616Y-118764166D02*
X209064616Y-118687976D01*
X209064616Y-118687976D02*
X209102712Y-118611785D01*
X209102712Y-118611785D02*
X209140807Y-118573690D01*
X209140807Y-118573690D02*
X209216997Y-118535595D01*
X209216997Y-118535595D02*
X209407474Y-118535595D01*
X209407474Y-118535595D02*
X209521759Y-118573690D01*
X210321760Y-119259404D02*
X210283664Y-119297500D01*
X210283664Y-119297500D02*
X210169379Y-119335595D01*
X210169379Y-119335595D02*
X210093188Y-119335595D01*
X210093188Y-119335595D02*
X209978902Y-119297500D01*
X209978902Y-119297500D02*
X209902712Y-119221309D01*
X209902712Y-119221309D02*
X209864617Y-119145119D01*
X209864617Y-119145119D02*
X209826521Y-118992738D01*
X209826521Y-118992738D02*
X209826521Y-118878452D01*
X209826521Y-118878452D02*
X209864617Y-118726071D01*
X209864617Y-118726071D02*
X209902712Y-118649880D01*
X209902712Y-118649880D02*
X209978902Y-118573690D01*
X209978902Y-118573690D02*
X210093188Y-118535595D01*
X210093188Y-118535595D02*
X210169379Y-118535595D01*
X210169379Y-118535595D02*
X210283664Y-118573690D01*
X210283664Y-118573690D02*
X210321760Y-118611785D01*
X211045569Y-119335595D02*
X210664617Y-119335595D01*
X210664617Y-119335595D02*
X210664617Y-118535595D01*
G36*
X186431220Y-125246912D02*
G01*
X186453242Y-125305637D01*
X186448863Y-125340673D01*
X186089889Y-125410717D01*
X186101286Y-125319542D01*
X186143755Y-125251591D01*
X186215665Y-125217752D01*
X186376545Y-125217752D01*
X186431220Y-125246912D01*
G37*
G36*
X189346715Y-125252635D02*
G01*
X189373358Y-125283085D01*
X189399672Y-125353256D01*
X189367578Y-125610007D01*
X189320123Y-125685936D01*
X189280010Y-125721592D01*
X189199630Y-125759419D01*
X189086368Y-125759419D01*
X189020961Y-125724535D01*
X188994317Y-125694085D01*
X188968003Y-125623913D01*
X189000096Y-125367162D01*
X189047552Y-125291233D01*
X189087663Y-125255578D01*
X189168047Y-125217752D01*
X189281308Y-125217752D01*
X189346715Y-125252635D01*
G37*
G36*
X192654773Y-125995530D02*
G01*
X180992850Y-125995530D01*
X180992850Y-125814167D01*
X181103961Y-125814167D01*
X181105715Y-125838490D01*
X181135083Y-125876248D01*
X181182549Y-125882182D01*
X181220307Y-125852814D01*
X181227995Y-125829671D01*
X181247086Y-125676940D01*
X181978515Y-125676940D01*
X181980038Y-125686239D01*
X181980716Y-125695632D01*
X181981807Y-125697035D01*
X181982458Y-125701006D01*
X182018172Y-125796245D01*
X182027680Y-125811576D01*
X182028416Y-125813993D01*
X182029967Y-125815264D01*
X182031025Y-125816969D01*
X182033325Y-125818014D01*
X182047281Y-125829447D01*
X182136568Y-125877066D01*
X182140722Y-125878322D01*
X182142061Y-125879661D01*
X182151092Y-125881457D01*
X182159911Y-125884124D01*
X182161723Y-125883572D01*
X182165979Y-125884419D01*
X182308836Y-125884419D01*
X182310858Y-125884016D01*
X182311781Y-125884349D01*
X182322207Y-125881759D01*
X182332754Y-125879661D01*
X182333448Y-125878966D01*
X182335448Y-125878470D01*
X182399194Y-125848472D01*
X182420798Y-125876248D01*
X182468264Y-125882182D01*
X182506022Y-125852814D01*
X182513710Y-125829671D01*
X182515648Y-125814167D01*
X182865866Y-125814167D01*
X182867620Y-125838490D01*
X182896988Y-125876248D01*
X182944454Y-125882182D01*
X182982212Y-125852814D01*
X182989900Y-125829671D01*
X183058412Y-125281578D01*
X183087661Y-125255578D01*
X183168045Y-125217752D01*
X183281306Y-125217752D01*
X183335981Y-125246912D01*
X183358003Y-125305637D01*
X183294438Y-125814167D01*
X183296192Y-125838490D01*
X183325560Y-125876248D01*
X183373026Y-125882182D01*
X183410784Y-125852814D01*
X183418472Y-125829671D01*
X183420410Y-125814167D01*
X184532533Y-125814167D01*
X184534287Y-125838490D01*
X184536808Y-125841731D01*
X184536808Y-125845837D01*
X184551179Y-125860208D01*
X184563655Y-125876248D01*
X184567728Y-125876757D01*
X184570632Y-125879661D01*
X184594550Y-125884419D01*
X185070741Y-125884419D01*
X185094659Y-125879661D01*
X185128483Y-125845837D01*
X185128483Y-125798001D01*
X185094659Y-125764177D01*
X185070741Y-125759419D01*
X184665349Y-125759419D01*
X184675659Y-125676940D01*
X185454706Y-125676940D01*
X185456229Y-125686239D01*
X185456907Y-125695632D01*
X185457998Y-125697035D01*
X185458649Y-125701006D01*
X185494363Y-125796245D01*
X185503871Y-125811576D01*
X185504607Y-125813993D01*
X185506158Y-125815264D01*
X185507216Y-125816969D01*
X185509516Y-125818014D01*
X185523472Y-125829447D01*
X185612759Y-125877066D01*
X185636102Y-125884124D01*
X185681864Y-125870196D01*
X185704375Y-125827988D01*
X185690447Y-125782226D01*
X185671582Y-125766772D01*
X185603118Y-125730258D01*
X185583125Y-125676941D01*
X185930896Y-125676941D01*
X185932419Y-125686236D01*
X185933097Y-125695632D01*
X185934189Y-125697036D01*
X185934840Y-125701006D01*
X185970554Y-125796245D01*
X185980061Y-125811574D01*
X185980798Y-125813993D01*
X185982351Y-125815265D01*
X185983408Y-125816969D01*
X185985705Y-125818013D01*
X185999663Y-125829447D01*
X186088948Y-125877066D01*
X186093103Y-125878322D01*
X186094442Y-125879661D01*
X186103476Y-125881458D01*
X186112291Y-125884123D01*
X186114101Y-125883571D01*
X186118360Y-125884419D01*
X186308837Y-125884419D01*
X186310859Y-125884016D01*
X186311782Y-125884349D01*
X186322208Y-125881759D01*
X186332755Y-125879661D01*
X186333449Y-125878966D01*
X186335449Y-125878470D01*
X186436640Y-125830851D01*
X186456255Y-125816362D01*
X186472458Y-125771355D01*
X186452089Y-125728072D01*
X186407082Y-125711870D01*
X186383415Y-125717749D01*
X186294867Y-125759419D01*
X186133985Y-125759419D01*
X186079308Y-125730258D01*
X186057286Y-125671534D01*
X186062563Y-125629321D01*
X186793992Y-125629321D01*
X186795515Y-125638620D01*
X186796193Y-125648013D01*
X186797284Y-125649416D01*
X186797935Y-125653387D01*
X186833649Y-125748625D01*
X186839545Y-125758132D01*
X186845134Y-125767836D01*
X186886801Y-125815457D01*
X186895728Y-125822322D01*
X186904425Y-125829447D01*
X186993712Y-125877066D01*
X186997866Y-125878322D01*
X186999205Y-125879661D01*
X187008236Y-125881457D01*
X187017055Y-125884124D01*
X187018867Y-125883572D01*
X187023123Y-125884419D01*
X187213599Y-125884419D01*
X187215621Y-125884016D01*
X187216544Y-125884349D01*
X187226970Y-125881759D01*
X187237517Y-125879661D01*
X187238211Y-125878966D01*
X187240211Y-125878470D01*
X187341402Y-125830851D01*
X187361017Y-125816362D01*
X187377220Y-125771355D01*
X187356851Y-125728072D01*
X187311844Y-125711870D01*
X187288177Y-125717749D01*
X187199629Y-125759419D01*
X187038748Y-125759419D01*
X186973341Y-125724535D01*
X186946697Y-125694085D01*
X186920383Y-125623913D01*
X186952476Y-125367162D01*
X186999932Y-125291233D01*
X187040043Y-125255578D01*
X187120427Y-125217752D01*
X187281307Y-125217752D01*
X187356807Y-125258018D01*
X187380150Y-125265076D01*
X187425912Y-125251148D01*
X187448423Y-125208940D01*
X187434495Y-125163178D01*
X187415630Y-125147724D01*
X187384899Y-125131334D01*
X187620143Y-125131334D01*
X187620143Y-125179170D01*
X187653967Y-125212994D01*
X187677885Y-125217752D01*
X187749943Y-125217752D01*
X187693249Y-125671309D01*
X187693538Y-125675320D01*
X187692802Y-125676940D01*
X187694325Y-125686239D01*
X187695003Y-125695632D01*
X187696094Y-125697035D01*
X187696745Y-125701006D01*
X187732459Y-125796245D01*
X187741967Y-125811576D01*
X187742703Y-125813993D01*
X187744254Y-125815264D01*
X187745312Y-125816969D01*
X187747612Y-125818014D01*
X187761568Y-125829447D01*
X187850855Y-125877066D01*
X187855009Y-125878322D01*
X187856348Y-125879661D01*
X187865379Y-125881457D01*
X187874198Y-125884124D01*
X187876010Y-125883572D01*
X187880266Y-125884419D01*
X187975504Y-125884419D01*
X187999422Y-125879661D01*
X188033246Y-125845837D01*
X188033246Y-125814167D01*
X188246820Y-125814167D01*
X188248574Y-125838490D01*
X188277942Y-125876248D01*
X188325408Y-125882182D01*
X188363166Y-125852814D01*
X188370854Y-125829671D01*
X188395898Y-125629321D01*
X188841612Y-125629321D01*
X188843135Y-125638620D01*
X188843813Y-125648013D01*
X188844904Y-125649416D01*
X188845555Y-125653387D01*
X188881269Y-125748625D01*
X188887165Y-125758132D01*
X188892754Y-125767836D01*
X188934421Y-125815457D01*
X188943348Y-125822322D01*
X188952045Y-125829447D01*
X189041332Y-125877066D01*
X189045486Y-125878322D01*
X189046825Y-125879661D01*
X189055856Y-125881457D01*
X189064675Y-125884124D01*
X189066487Y-125883572D01*
X189070743Y-125884419D01*
X189213600Y-125884419D01*
X189215622Y-125884016D01*
X189216545Y-125884349D01*
X189226971Y-125881759D01*
X189237518Y-125879661D01*
X189238212Y-125878966D01*
X189240212Y-125878470D01*
X189341403Y-125830851D01*
X189348599Y-125825535D01*
X189356313Y-125821013D01*
X189364015Y-125814167D01*
X189770630Y-125814167D01*
X189772384Y-125838490D01*
X189801752Y-125876248D01*
X189849218Y-125882182D01*
X189886976Y-125852814D01*
X189894664Y-125829671D01*
X189963176Y-125281578D01*
X189992425Y-125255578D01*
X190072809Y-125217752D01*
X190186070Y-125217752D01*
X190240745Y-125246912D01*
X190262767Y-125305637D01*
X190199202Y-125814167D01*
X190200956Y-125838490D01*
X190230324Y-125876248D01*
X190277790Y-125882182D01*
X190315548Y-125852814D01*
X190323236Y-125829671D01*
X190325174Y-125814167D01*
X190675392Y-125814167D01*
X190677146Y-125838490D01*
X190706514Y-125876248D01*
X190753980Y-125882182D01*
X190791738Y-125852814D01*
X190799426Y-125829671D01*
X190824470Y-125629321D01*
X191127326Y-125629321D01*
X191128849Y-125638620D01*
X191129527Y-125648013D01*
X191130618Y-125649416D01*
X191131269Y-125653387D01*
X191166983Y-125748625D01*
X191172879Y-125758132D01*
X191178468Y-125767836D01*
X191220135Y-125815457D01*
X191229062Y-125822322D01*
X191237759Y-125829447D01*
X191327046Y-125877066D01*
X191331200Y-125878322D01*
X191332539Y-125879661D01*
X191341570Y-125881457D01*
X191350389Y-125884124D01*
X191352201Y-125883572D01*
X191356457Y-125884419D01*
X191546933Y-125884419D01*
X191548955Y-125884016D01*
X191549878Y-125884349D01*
X191560304Y-125881759D01*
X191570851Y-125879661D01*
X191571545Y-125878966D01*
X191573545Y-125878470D01*
X191674736Y-125830851D01*
X191694351Y-125816362D01*
X191710554Y-125771355D01*
X191709084Y-125768231D01*
X191966872Y-125768231D01*
X191980799Y-125813993D01*
X191999664Y-125829447D01*
X192088949Y-125877066D01*
X192093104Y-125878322D01*
X192094443Y-125879661D01*
X192103477Y-125881458D01*
X192112292Y-125884123D01*
X192114102Y-125883571D01*
X192118361Y-125884419D01*
X192308838Y-125884419D01*
X192310860Y-125884016D01*
X192311783Y-125884349D01*
X192322209Y-125881759D01*
X192332756Y-125879661D01*
X192333450Y-125878966D01*
X192335450Y-125878470D01*
X192436641Y-125830851D01*
X192443398Y-125825859D01*
X192446317Y-125825186D01*
X192450889Y-125820325D01*
X192456256Y-125816362D01*
X192457270Y-125813544D01*
X192463028Y-125807425D01*
X192522552Y-125712186D01*
X192523194Y-125710490D01*
X192523882Y-125709956D01*
X192527322Y-125699598D01*
X192531194Y-125689382D01*
X192530997Y-125688532D01*
X192531569Y-125686813D01*
X192537521Y-125639193D01*
X192537231Y-125635182D01*
X192537968Y-125633563D01*
X192536444Y-125624263D01*
X192535767Y-125614870D01*
X192534675Y-125613466D01*
X192534025Y-125609497D01*
X192498311Y-125514259D01*
X192488802Y-125498928D01*
X192488067Y-125496511D01*
X192486514Y-125495239D01*
X192485457Y-125493534D01*
X192483156Y-125492488D01*
X192469202Y-125481057D01*
X192379916Y-125433438D01*
X192375760Y-125432181D01*
X192374422Y-125430843D01*
X192365385Y-125429045D01*
X192356572Y-125426381D01*
X192354761Y-125426931D01*
X192350504Y-125426085D01*
X192223272Y-125426085D01*
X192168595Y-125396924D01*
X192146574Y-125338199D01*
X192148906Y-125319543D01*
X192191375Y-125251591D01*
X192263285Y-125217752D01*
X192376546Y-125217752D01*
X192452046Y-125258018D01*
X192475389Y-125265076D01*
X192521151Y-125251148D01*
X192543662Y-125208940D01*
X192529734Y-125163178D01*
X192510869Y-125147724D01*
X192421583Y-125100105D01*
X192417427Y-125098848D01*
X192416089Y-125097510D01*
X192407052Y-125095712D01*
X192398239Y-125093048D01*
X192396428Y-125093598D01*
X192392171Y-125092752D01*
X192249314Y-125092752D01*
X192247292Y-125093154D01*
X192246370Y-125092822D01*
X192235945Y-125095411D01*
X192225396Y-125097510D01*
X192224701Y-125098204D01*
X192222702Y-125098701D01*
X192121511Y-125146320D01*
X192114753Y-125151311D01*
X192111834Y-125151985D01*
X192107260Y-125156845D01*
X192101895Y-125160809D01*
X192100880Y-125163626D01*
X192095123Y-125169746D01*
X192035600Y-125264984D01*
X192034957Y-125266678D01*
X192034271Y-125267213D01*
X192030830Y-125277571D01*
X192026958Y-125287789D01*
X192027153Y-125288637D01*
X192026583Y-125290356D01*
X192020630Y-125337975D01*
X192020919Y-125341987D01*
X192020183Y-125343607D01*
X192021706Y-125352907D01*
X192022384Y-125362299D01*
X192023475Y-125363702D01*
X192024126Y-125367673D01*
X192059840Y-125462911D01*
X192069347Y-125478240D01*
X192070084Y-125480659D01*
X192071637Y-125481931D01*
X192072694Y-125483635D01*
X192074992Y-125484679D01*
X192088949Y-125496113D01*
X192178236Y-125543732D01*
X192182390Y-125544988D01*
X192183729Y-125546327D01*
X192192760Y-125548123D01*
X192201579Y-125550790D01*
X192203391Y-125550238D01*
X192207647Y-125551085D01*
X192334879Y-125551085D01*
X192389554Y-125580245D01*
X192411577Y-125638970D01*
X192409245Y-125657627D01*
X192366774Y-125725580D01*
X192294868Y-125759419D01*
X192133986Y-125759419D01*
X192058488Y-125719153D01*
X192035145Y-125712096D01*
X191989383Y-125726023D01*
X191966872Y-125768231D01*
X191709084Y-125768231D01*
X191690185Y-125728072D01*
X191645178Y-125711870D01*
X191621511Y-125717749D01*
X191532963Y-125759419D01*
X191372082Y-125759419D01*
X191306675Y-125724535D01*
X191280031Y-125694085D01*
X191253717Y-125623913D01*
X191285810Y-125367162D01*
X191333266Y-125291233D01*
X191373377Y-125255578D01*
X191453761Y-125217752D01*
X191614641Y-125217752D01*
X191690141Y-125258018D01*
X191713484Y-125265076D01*
X191759246Y-125251148D01*
X191781757Y-125208940D01*
X191767829Y-125163178D01*
X191748964Y-125147724D01*
X191659678Y-125100105D01*
X191655522Y-125098848D01*
X191654184Y-125097510D01*
X191645147Y-125095712D01*
X191636334Y-125093048D01*
X191634523Y-125093598D01*
X191630266Y-125092752D01*
X191439790Y-125092752D01*
X191437768Y-125093154D01*
X191436846Y-125092822D01*
X191426421Y-125095411D01*
X191415872Y-125097510D01*
X191415177Y-125098204D01*
X191413178Y-125098701D01*
X191311987Y-125146320D01*
X191304792Y-125151633D01*
X191297076Y-125156158D01*
X191243505Y-125203777D01*
X191238131Y-125210877D01*
X191232028Y-125217365D01*
X191172504Y-125312603D01*
X191171861Y-125314298D01*
X191171174Y-125314833D01*
X191167733Y-125325190D01*
X191163862Y-125335407D01*
X191164058Y-125336256D01*
X191163487Y-125337976D01*
X191127773Y-125623690D01*
X191128062Y-125627701D01*
X191127326Y-125629321D01*
X190824470Y-125629321D01*
X190882760Y-125163004D01*
X190881006Y-125138681D01*
X190851638Y-125100923D01*
X190804172Y-125094989D01*
X190766414Y-125124357D01*
X190758726Y-125147500D01*
X190675392Y-125814167D01*
X190325174Y-125814167D01*
X190388712Y-125305862D01*
X190388422Y-125301849D01*
X190389159Y-125300230D01*
X190387635Y-125290929D01*
X190386958Y-125281538D01*
X190385866Y-125280134D01*
X190385216Y-125276164D01*
X190349502Y-125180926D01*
X190339993Y-125165595D01*
X190339258Y-125163178D01*
X190337705Y-125161906D01*
X190336648Y-125160201D01*
X190334347Y-125159155D01*
X190320393Y-125147724D01*
X190231107Y-125100105D01*
X190226951Y-125098848D01*
X190225613Y-125097510D01*
X190216576Y-125095712D01*
X190207763Y-125093048D01*
X190205952Y-125093598D01*
X190201695Y-125092752D01*
X190058838Y-125092752D01*
X190056816Y-125093154D01*
X190055894Y-125092822D01*
X190045469Y-125095411D01*
X190034920Y-125097510D01*
X190034225Y-125098204D01*
X190032226Y-125098701D01*
X189968479Y-125128698D01*
X189946876Y-125100923D01*
X189899410Y-125094989D01*
X189861652Y-125124357D01*
X189853964Y-125147500D01*
X189770630Y-125814167D01*
X189364015Y-125814167D01*
X189409885Y-125773393D01*
X189415259Y-125766290D01*
X189421362Y-125759805D01*
X189480885Y-125664566D01*
X189481527Y-125662871D01*
X189482214Y-125662337D01*
X189485653Y-125651983D01*
X189489527Y-125641762D01*
X189489331Y-125640912D01*
X189489902Y-125639194D01*
X189525617Y-125353480D01*
X189525327Y-125349467D01*
X189526064Y-125347848D01*
X189524540Y-125338551D01*
X189523863Y-125329156D01*
X189522770Y-125327751D01*
X189522120Y-125323782D01*
X189486405Y-125228544D01*
X189480501Y-125219025D01*
X189474921Y-125209334D01*
X189433255Y-125161715D01*
X189424340Y-125154858D01*
X189415631Y-125147724D01*
X189326345Y-125100105D01*
X189322189Y-125098848D01*
X189320851Y-125097510D01*
X189311814Y-125095712D01*
X189303001Y-125093048D01*
X189301190Y-125093598D01*
X189296933Y-125092752D01*
X189154076Y-125092752D01*
X189152054Y-125093154D01*
X189151132Y-125092822D01*
X189140707Y-125095411D01*
X189130158Y-125097510D01*
X189129463Y-125098204D01*
X189127464Y-125098701D01*
X189026273Y-125146320D01*
X189019078Y-125151633D01*
X189011362Y-125156158D01*
X188957791Y-125203777D01*
X188952417Y-125210877D01*
X188946314Y-125217365D01*
X188886790Y-125312603D01*
X188886147Y-125314298D01*
X188885460Y-125314833D01*
X188882019Y-125325190D01*
X188878148Y-125335407D01*
X188878344Y-125336256D01*
X188877773Y-125337976D01*
X188842059Y-125623690D01*
X188842348Y-125627701D01*
X188841612Y-125629321D01*
X188395898Y-125629321D01*
X188428668Y-125367161D01*
X188476123Y-125291233D01*
X188516234Y-125255578D01*
X188596618Y-125217752D01*
X188677885Y-125217752D01*
X188701803Y-125212994D01*
X188735627Y-125179170D01*
X188735627Y-125131334D01*
X188701803Y-125097510D01*
X188677885Y-125092752D01*
X188582647Y-125092752D01*
X188580625Y-125093154D01*
X188579703Y-125092822D01*
X188569278Y-125095411D01*
X188558729Y-125097510D01*
X188558034Y-125098204D01*
X188556035Y-125098701D01*
X188454844Y-125146320D01*
X188453078Y-125147623D01*
X188452434Y-125138681D01*
X188423066Y-125100923D01*
X188375600Y-125094989D01*
X188337842Y-125124357D01*
X188330154Y-125147500D01*
X188246820Y-125814167D01*
X188033246Y-125814167D01*
X188033246Y-125798001D01*
X187999422Y-125764177D01*
X187975504Y-125759419D01*
X187895891Y-125759419D01*
X187841214Y-125730258D01*
X187819193Y-125671532D01*
X187875915Y-125217752D01*
X188058837Y-125217752D01*
X188082755Y-125212994D01*
X188116579Y-125179170D01*
X188116579Y-125131334D01*
X188082755Y-125097510D01*
X188058837Y-125092752D01*
X187891540Y-125092752D01*
X187916939Y-124889562D01*
X190749633Y-124889562D01*
X190749800Y-124889853D01*
X190749791Y-124890023D01*
X190750096Y-124890366D01*
X190761802Y-124910695D01*
X190803469Y-124958314D01*
X190818140Y-124969597D01*
X190819610Y-124971487D01*
X190820788Y-124971634D01*
X190822800Y-124973181D01*
X190823064Y-124973198D01*
X190823239Y-124973395D01*
X190845220Y-124974688D01*
X190867077Y-124977420D01*
X190868602Y-124976233D01*
X190870529Y-124976362D01*
X190870727Y-124976188D01*
X190870990Y-124976204D01*
X190892028Y-124963870D01*
X190945599Y-124916251D01*
X190959750Y-124897549D01*
X190960100Y-124897243D01*
X190960111Y-124897071D01*
X190960314Y-124896804D01*
X190961703Y-124873187D01*
X190963281Y-124849515D01*
X190963112Y-124849223D01*
X190963123Y-124849053D01*
X190962816Y-124848707D01*
X190951112Y-124828381D01*
X190909445Y-124780762D01*
X190894773Y-124769478D01*
X190893304Y-124767589D01*
X190892125Y-124767441D01*
X190890114Y-124765895D01*
X190889850Y-124765877D01*
X190889676Y-124765681D01*
X190867693Y-124764387D01*
X190845837Y-124761656D01*
X190844311Y-124762842D01*
X190842385Y-124762714D01*
X190842186Y-124762887D01*
X190841924Y-124762872D01*
X190820886Y-124775206D01*
X190767315Y-124822825D01*
X190753163Y-124841526D01*
X190752814Y-124841833D01*
X190752802Y-124842004D01*
X190752600Y-124842272D01*
X190751210Y-124865892D01*
X190749633Y-124889562D01*
X187916939Y-124889562D01*
X187924425Y-124829671D01*
X187922671Y-124805348D01*
X187893303Y-124767590D01*
X187845837Y-124761657D01*
X187808078Y-124791024D01*
X187800391Y-124814167D01*
X187765568Y-125092752D01*
X187677885Y-125092752D01*
X187653967Y-125097510D01*
X187620143Y-125131334D01*
X187384899Y-125131334D01*
X187326344Y-125100105D01*
X187322188Y-125098848D01*
X187320850Y-125097510D01*
X187311813Y-125095712D01*
X187303000Y-125093048D01*
X187301189Y-125093598D01*
X187296932Y-125092752D01*
X187106456Y-125092752D01*
X187104434Y-125093154D01*
X187103512Y-125092822D01*
X187093087Y-125095411D01*
X187082538Y-125097510D01*
X187081843Y-125098204D01*
X187079844Y-125098701D01*
X186978653Y-125146320D01*
X186971458Y-125151633D01*
X186963742Y-125156158D01*
X186910171Y-125203777D01*
X186904797Y-125210877D01*
X186898694Y-125217365D01*
X186839170Y-125312603D01*
X186838527Y-125314298D01*
X186837840Y-125314833D01*
X186834399Y-125325190D01*
X186830528Y-125335407D01*
X186830724Y-125336256D01*
X186830153Y-125337976D01*
X186794439Y-125623690D01*
X186794728Y-125627701D01*
X186793992Y-125629321D01*
X186062563Y-125629321D01*
X186073571Y-125541258D01*
X186517235Y-125454690D01*
X186520329Y-125453421D01*
X186521836Y-125453610D01*
X186524027Y-125451905D01*
X186539799Y-125445440D01*
X186548003Y-125433256D01*
X186559594Y-125424242D01*
X186564966Y-125408069D01*
X186566519Y-125405764D01*
X186566227Y-125404272D01*
X186567282Y-125401099D01*
X186579187Y-125305862D01*
X186578897Y-125301849D01*
X186579634Y-125300230D01*
X186578110Y-125290929D01*
X186577433Y-125281538D01*
X186576341Y-125280134D01*
X186575691Y-125276164D01*
X186539977Y-125180926D01*
X186530468Y-125165595D01*
X186529733Y-125163178D01*
X186528180Y-125161906D01*
X186527123Y-125160201D01*
X186524822Y-125159155D01*
X186510868Y-125147724D01*
X186421582Y-125100105D01*
X186417426Y-125098848D01*
X186416088Y-125097510D01*
X186407051Y-125095712D01*
X186398238Y-125093048D01*
X186396427Y-125093598D01*
X186392170Y-125092752D01*
X186201694Y-125092752D01*
X186199672Y-125093154D01*
X186198750Y-125092822D01*
X186188325Y-125095411D01*
X186177776Y-125097510D01*
X186177081Y-125098204D01*
X186175082Y-125098701D01*
X186073891Y-125146320D01*
X186067133Y-125151311D01*
X186064214Y-125151985D01*
X186059640Y-125156845D01*
X186054275Y-125160809D01*
X186053260Y-125163626D01*
X186047503Y-125169746D01*
X185987980Y-125264984D01*
X185987337Y-125266678D01*
X185986651Y-125267213D01*
X185983210Y-125277571D01*
X185979338Y-125287789D01*
X185979533Y-125288637D01*
X185978963Y-125290356D01*
X185931343Y-125671309D01*
X185931632Y-125675321D01*
X185930896Y-125676941D01*
X185583125Y-125676941D01*
X185581097Y-125671532D01*
X185686329Y-124829671D01*
X185684575Y-124805348D01*
X185655207Y-124767590D01*
X185607741Y-124761657D01*
X185569982Y-124791024D01*
X185562295Y-124814167D01*
X185455153Y-125671309D01*
X185455442Y-125675320D01*
X185454706Y-125676940D01*
X184675659Y-125676940D01*
X184715200Y-125360609D01*
X184993360Y-125360609D01*
X185017278Y-125355851D01*
X185051102Y-125322027D01*
X185051102Y-125274191D01*
X185017278Y-125240367D01*
X184993360Y-125235609D01*
X184730825Y-125235609D01*
X184774723Y-124884419D01*
X185195741Y-124884419D01*
X185219659Y-124879661D01*
X185253483Y-124845837D01*
X185253483Y-124798001D01*
X185219659Y-124764177D01*
X185195741Y-124759419D01*
X184719550Y-124759419D01*
X184706249Y-124762064D01*
X184702979Y-124761656D01*
X184701148Y-124763079D01*
X184695632Y-124764177D01*
X184681260Y-124778548D01*
X184665221Y-124791024D01*
X184663448Y-124796360D01*
X184661808Y-124798001D01*
X184661808Y-124801298D01*
X184657533Y-124814167D01*
X184532533Y-125814167D01*
X183420410Y-125814167D01*
X183483948Y-125305862D01*
X183483658Y-125301849D01*
X183484395Y-125300230D01*
X183482871Y-125290929D01*
X183482194Y-125281538D01*
X183481102Y-125280134D01*
X183480452Y-125276164D01*
X183444738Y-125180926D01*
X183435229Y-125165595D01*
X183434494Y-125163178D01*
X183432941Y-125161906D01*
X183431884Y-125160201D01*
X183429583Y-125159155D01*
X183415629Y-125147724D01*
X183326343Y-125100105D01*
X183322187Y-125098848D01*
X183320849Y-125097510D01*
X183311812Y-125095712D01*
X183302999Y-125093048D01*
X183301188Y-125093598D01*
X183296931Y-125092752D01*
X183154074Y-125092752D01*
X183152052Y-125093154D01*
X183151130Y-125092822D01*
X183140705Y-125095411D01*
X183130156Y-125097510D01*
X183129461Y-125098204D01*
X183127462Y-125098701D01*
X183063715Y-125128698D01*
X183042112Y-125100923D01*
X182994646Y-125094989D01*
X182956888Y-125124357D01*
X182949200Y-125147500D01*
X182865866Y-125814167D01*
X182515648Y-125814167D01*
X182597043Y-125163004D01*
X182595289Y-125138681D01*
X182565921Y-125100923D01*
X182518455Y-125094989D01*
X182480697Y-125124357D01*
X182473009Y-125147500D01*
X182404497Y-125695591D01*
X182375246Y-125721592D01*
X182294866Y-125759419D01*
X182181604Y-125759419D01*
X182126927Y-125730258D01*
X182104906Y-125671532D01*
X182168472Y-125163005D01*
X182166718Y-125138681D01*
X182137350Y-125100923D01*
X182089884Y-125094990D01*
X182052125Y-125124357D01*
X182044438Y-125147500D01*
X181978962Y-125671309D01*
X181979251Y-125675320D01*
X181978515Y-125676940D01*
X181247086Y-125676940D01*
X181286628Y-125360609D01*
X181564788Y-125360609D01*
X181588706Y-125355851D01*
X181622530Y-125322027D01*
X181622530Y-125274191D01*
X181588706Y-125240367D01*
X181564788Y-125235609D01*
X181302253Y-125235609D01*
X181346151Y-124884419D01*
X181767169Y-124884419D01*
X181791087Y-124879661D01*
X181824911Y-124845837D01*
X181824911Y-124798001D01*
X181791087Y-124764177D01*
X181767169Y-124759419D01*
X181290978Y-124759419D01*
X181277677Y-124762064D01*
X181274407Y-124761656D01*
X181272576Y-124763079D01*
X181267060Y-124764177D01*
X181252688Y-124778548D01*
X181236649Y-124791024D01*
X181234876Y-124796360D01*
X181233236Y-124798001D01*
X181233236Y-124801298D01*
X181228961Y-124814167D01*
X181103961Y-125814167D01*
X180992850Y-125814167D01*
X180992850Y-124648308D01*
X192654773Y-124648308D01*
X192654773Y-125995530D01*
G37*
D11*
X190305053Y-105390828D02*
X189805053Y-104676542D01*
X189447910Y-105390828D02*
X189447910Y-103890828D01*
X189447910Y-103890828D02*
X190019339Y-103890828D01*
X190019339Y-103890828D02*
X190162196Y-103962257D01*
X190162196Y-103962257D02*
X190233625Y-104033685D01*
X190233625Y-104033685D02*
X190305053Y-104176542D01*
X190305053Y-104176542D02*
X190305053Y-104390828D01*
X190305053Y-104390828D02*
X190233625Y-104533685D01*
X190233625Y-104533685D02*
X190162196Y-104605114D01*
X190162196Y-104605114D02*
X190019339Y-104676542D01*
X190019339Y-104676542D02*
X189447910Y-104676542D01*
X190733625Y-103890828D02*
X191590768Y-103890828D01*
X191162196Y-105390828D02*
X191162196Y-103890828D01*
X192947910Y-105247971D02*
X192876482Y-105319400D01*
X192876482Y-105319400D02*
X192662196Y-105390828D01*
X192662196Y-105390828D02*
X192519339Y-105390828D01*
X192519339Y-105390828D02*
X192305053Y-105319400D01*
X192305053Y-105319400D02*
X192162196Y-105176542D01*
X192162196Y-105176542D02*
X192090767Y-105033685D01*
X192090767Y-105033685D02*
X192019339Y-104747971D01*
X192019339Y-104747971D02*
X192019339Y-104533685D01*
X192019339Y-104533685D02*
X192090767Y-104247971D01*
X192090767Y-104247971D02*
X192162196Y-104105114D01*
X192162196Y-104105114D02*
X192305053Y-103962257D01*
X192305053Y-103962257D02*
X192519339Y-103890828D01*
X192519339Y-103890828D02*
X192662196Y-103890828D01*
X192662196Y-103890828D02*
X192876482Y-103962257D01*
X192876482Y-103962257D02*
X192947910Y-104033685D01*
X193233625Y-105533685D02*
X194376482Y-105533685D01*
X194733624Y-105390828D02*
X194733624Y-103890828D01*
X194733624Y-103890828D02*
X195233624Y-104962257D01*
X195233624Y-104962257D02*
X195733624Y-103890828D01*
X195733624Y-103890828D02*
X195733624Y-105390828D01*
X196662196Y-105390828D02*
X196519339Y-105319400D01*
X196519339Y-105319400D02*
X196447910Y-105247971D01*
X196447910Y-105247971D02*
X196376482Y-105105114D01*
X196376482Y-105105114D02*
X196376482Y-104676542D01*
X196376482Y-104676542D02*
X196447910Y-104533685D01*
X196447910Y-104533685D02*
X196519339Y-104462257D01*
X196519339Y-104462257D02*
X196662196Y-104390828D01*
X196662196Y-104390828D02*
X196876482Y-104390828D01*
X196876482Y-104390828D02*
X197019339Y-104462257D01*
X197019339Y-104462257D02*
X197090768Y-104533685D01*
X197090768Y-104533685D02*
X197162196Y-104676542D01*
X197162196Y-104676542D02*
X197162196Y-105105114D01*
X197162196Y-105105114D02*
X197090768Y-105247971D01*
X197090768Y-105247971D02*
X197019339Y-105319400D01*
X197019339Y-105319400D02*
X196876482Y-105390828D01*
X196876482Y-105390828D02*
X196662196Y-105390828D01*
X198447911Y-105390828D02*
X198447911Y-103890828D01*
X198447911Y-105319400D02*
X198305053Y-105390828D01*
X198305053Y-105390828D02*
X198019339Y-105390828D01*
X198019339Y-105390828D02*
X197876482Y-105319400D01*
X197876482Y-105319400D02*
X197805053Y-105247971D01*
X197805053Y-105247971D02*
X197733625Y-105105114D01*
X197733625Y-105105114D02*
X197733625Y-104676542D01*
X197733625Y-104676542D02*
X197805053Y-104533685D01*
X197805053Y-104533685D02*
X197876482Y-104462257D01*
X197876482Y-104462257D02*
X198019339Y-104390828D01*
X198019339Y-104390828D02*
X198305053Y-104390828D01*
X198305053Y-104390828D02*
X198447911Y-104462257D01*
X199805054Y-104390828D02*
X199805054Y-105390828D01*
X199162196Y-104390828D02*
X199162196Y-105176542D01*
X199162196Y-105176542D02*
X199233625Y-105319400D01*
X199233625Y-105319400D02*
X199376482Y-105390828D01*
X199376482Y-105390828D02*
X199590768Y-105390828D01*
X199590768Y-105390828D02*
X199733625Y-105319400D01*
X199733625Y-105319400D02*
X199805054Y-105247971D01*
X200733625Y-105390828D02*
X200590768Y-105319400D01*
X200590768Y-105319400D02*
X200519339Y-105176542D01*
X200519339Y-105176542D02*
X200519339Y-103890828D01*
X201876482Y-105319400D02*
X201733625Y-105390828D01*
X201733625Y-105390828D02*
X201447911Y-105390828D01*
X201447911Y-105390828D02*
X201305053Y-105319400D01*
X201305053Y-105319400D02*
X201233625Y-105176542D01*
X201233625Y-105176542D02*
X201233625Y-104605114D01*
X201233625Y-104605114D02*
X201305053Y-104462257D01*
X201305053Y-104462257D02*
X201447911Y-104390828D01*
X201447911Y-104390828D02*
X201733625Y-104390828D01*
X201733625Y-104390828D02*
X201876482Y-104462257D01*
X201876482Y-104462257D02*
X201947911Y-104605114D01*
X201947911Y-104605114D02*
X201947911Y-104747971D01*
X201947911Y-104747971D02*
X201233625Y-104890828D01*
D12*
X191352447Y-106956109D02*
X191352447Y-107360871D01*
X191352447Y-107360871D02*
X191376257Y-107408490D01*
X191376257Y-107408490D02*
X191400066Y-107432300D01*
X191400066Y-107432300D02*
X191447685Y-107456109D01*
X191447685Y-107456109D02*
X191542923Y-107456109D01*
X191542923Y-107456109D02*
X191590542Y-107432300D01*
X191590542Y-107432300D02*
X191614352Y-107408490D01*
X191614352Y-107408490D02*
X191638161Y-107360871D01*
X191638161Y-107360871D02*
X191638161Y-106956109D01*
X192138162Y-107456109D02*
X191852448Y-107456109D01*
X191995305Y-107456109D02*
X191995305Y-106956109D01*
X191995305Y-106956109D02*
X191947686Y-107027538D01*
X191947686Y-107027538D02*
X191900067Y-107075157D01*
X191900067Y-107075157D02*
X191852448Y-107098966D01*
X191520647Y-116026109D02*
X191520647Y-116430871D01*
X191520647Y-116430871D02*
X191544457Y-116478490D01*
X191544457Y-116478490D02*
X191568266Y-116502300D01*
X191568266Y-116502300D02*
X191615885Y-116526109D01*
X191615885Y-116526109D02*
X191711123Y-116526109D01*
X191711123Y-116526109D02*
X191758742Y-116502300D01*
X191758742Y-116502300D02*
X191782552Y-116478490D01*
X191782552Y-116478490D02*
X191806361Y-116430871D01*
X191806361Y-116430871D02*
X191806361Y-116026109D01*
X191996838Y-116026109D02*
X192306362Y-116026109D01*
X192306362Y-116026109D02*
X192139695Y-116216585D01*
X192139695Y-116216585D02*
X192211124Y-116216585D01*
X192211124Y-116216585D02*
X192258743Y-116240395D01*
X192258743Y-116240395D02*
X192282552Y-116264204D01*
X192282552Y-116264204D02*
X192306362Y-116311823D01*
X192306362Y-116311823D02*
X192306362Y-116430871D01*
X192306362Y-116430871D02*
X192282552Y-116478490D01*
X192282552Y-116478490D02*
X192258743Y-116502300D01*
X192258743Y-116502300D02*
X192211124Y-116526109D01*
X192211124Y-116526109D02*
X192068267Y-116526109D01*
X192068267Y-116526109D02*
X192020648Y-116502300D01*
X192020648Y-116502300D02*
X191996838Y-116478490D01*
X214316109Y-108713333D02*
X214078014Y-108879999D01*
X214316109Y-108999047D02*
X213816109Y-108999047D01*
X213816109Y-108999047D02*
X213816109Y-108808571D01*
X213816109Y-108808571D02*
X213839919Y-108760952D01*
X213839919Y-108760952D02*
X213863728Y-108737142D01*
X213863728Y-108737142D02*
X213911347Y-108713333D01*
X213911347Y-108713333D02*
X213982776Y-108713333D01*
X213982776Y-108713333D02*
X214030395Y-108737142D01*
X214030395Y-108737142D02*
X214054204Y-108760952D01*
X214054204Y-108760952D02*
X214078014Y-108808571D01*
X214078014Y-108808571D02*
X214078014Y-108999047D01*
X213816109Y-108546666D02*
X213816109Y-108237142D01*
X213816109Y-108237142D02*
X214006585Y-108403809D01*
X214006585Y-108403809D02*
X214006585Y-108332380D01*
X214006585Y-108332380D02*
X214030395Y-108284761D01*
X214030395Y-108284761D02*
X214054204Y-108260952D01*
X214054204Y-108260952D02*
X214101823Y-108237142D01*
X214101823Y-108237142D02*
X214220871Y-108237142D01*
X214220871Y-108237142D02*
X214268490Y-108260952D01*
X214268490Y-108260952D02*
X214292300Y-108284761D01*
X214292300Y-108284761D02*
X214316109Y-108332380D01*
X214316109Y-108332380D02*
X214316109Y-108475237D01*
X214316109Y-108475237D02*
X214292300Y-108522856D01*
X214292300Y-108522856D02*
X214268490Y-108546666D01*
X211478452Y-106846109D02*
X211478452Y-106346109D01*
X211478452Y-106346109D02*
X211597500Y-106346109D01*
X211597500Y-106346109D02*
X211668928Y-106369919D01*
X211668928Y-106369919D02*
X211716547Y-106417538D01*
X211716547Y-106417538D02*
X211740357Y-106465157D01*
X211740357Y-106465157D02*
X211764166Y-106560395D01*
X211764166Y-106560395D02*
X211764166Y-106631823D01*
X211764166Y-106631823D02*
X211740357Y-106727061D01*
X211740357Y-106727061D02*
X211716547Y-106774680D01*
X211716547Y-106774680D02*
X211668928Y-106822300D01*
X211668928Y-106822300D02*
X211597500Y-106846109D01*
X211597500Y-106846109D02*
X211478452Y-106846109D01*
X212240357Y-106846109D02*
X211954643Y-106846109D01*
X212097500Y-106846109D02*
X212097500Y-106346109D01*
X212097500Y-106346109D02*
X212049881Y-106417538D01*
X212049881Y-106417538D02*
X212002262Y-106465157D01*
X212002262Y-106465157D02*
X211954643Y-106488966D01*
X177036414Y-112648094D02*
X177274509Y-112648094D01*
X176774509Y-112814760D02*
X177036414Y-112648094D01*
X177036414Y-112648094D02*
X176774509Y-112481427D01*
X177274509Y-112052856D02*
X177274509Y-112338570D01*
X177274509Y-112195713D02*
X176774509Y-112195713D01*
X176774509Y-112195713D02*
X176845938Y-112243332D01*
X176845938Y-112243332D02*
X176893557Y-112290951D01*
X176893557Y-112290951D02*
X176917366Y-112338570D01*
X199586109Y-114042533D02*
X199348014Y-114209199D01*
X199586109Y-114328247D02*
X199086109Y-114328247D01*
X199086109Y-114328247D02*
X199086109Y-114137771D01*
X199086109Y-114137771D02*
X199109919Y-114090152D01*
X199109919Y-114090152D02*
X199133728Y-114066342D01*
X199133728Y-114066342D02*
X199181347Y-114042533D01*
X199181347Y-114042533D02*
X199252776Y-114042533D01*
X199252776Y-114042533D02*
X199300395Y-114066342D01*
X199300395Y-114066342D02*
X199324204Y-114090152D01*
X199324204Y-114090152D02*
X199348014Y-114137771D01*
X199348014Y-114137771D02*
X199348014Y-114328247D01*
X199133728Y-113852056D02*
X199109919Y-113828247D01*
X199109919Y-113828247D02*
X199086109Y-113780628D01*
X199086109Y-113780628D02*
X199086109Y-113661580D01*
X199086109Y-113661580D02*
X199109919Y-113613961D01*
X199109919Y-113613961D02*
X199133728Y-113590152D01*
X199133728Y-113590152D02*
X199181347Y-113566342D01*
X199181347Y-113566342D02*
X199228966Y-113566342D01*
X199228966Y-113566342D02*
X199300395Y-113590152D01*
X199300395Y-113590152D02*
X199586109Y-113875866D01*
X199586109Y-113875866D02*
X199586109Y-113566342D01*
X199886109Y-110879374D02*
X199648014Y-111046040D01*
X199886109Y-111165088D02*
X199386109Y-111165088D01*
X199386109Y-111165088D02*
X199386109Y-110974612D01*
X199386109Y-110974612D02*
X199409919Y-110926993D01*
X199409919Y-110926993D02*
X199433728Y-110903183D01*
X199433728Y-110903183D02*
X199481347Y-110879374D01*
X199481347Y-110879374D02*
X199552776Y-110879374D01*
X199552776Y-110879374D02*
X199600395Y-110903183D01*
X199600395Y-110903183D02*
X199624204Y-110926993D01*
X199624204Y-110926993D02*
X199648014Y-110974612D01*
X199648014Y-110974612D02*
X199648014Y-111165088D01*
X199886109Y-110403183D02*
X199886109Y-110688897D01*
X199886109Y-110546040D02*
X199386109Y-110546040D01*
X199386109Y-110546040D02*
X199457538Y-110593659D01*
X199457538Y-110593659D02*
X199505157Y-110641278D01*
X199505157Y-110641278D02*
X199528966Y-110688897D01*
X210123333Y-124026109D02*
X210123333Y-124383252D01*
X210123333Y-124383252D02*
X210099524Y-124454680D01*
X210099524Y-124454680D02*
X210051905Y-124502300D01*
X210051905Y-124502300D02*
X209980476Y-124526109D01*
X209980476Y-124526109D02*
X209932857Y-124526109D01*
X210623333Y-124526109D02*
X210337619Y-124526109D01*
X210480476Y-124526109D02*
X210480476Y-124026109D01*
X210480476Y-124026109D02*
X210432857Y-124097538D01*
X210432857Y-124097538D02*
X210385238Y-124145157D01*
X210385238Y-124145157D02*
X210337619Y-124168966D01*
X212726109Y-116796666D02*
X213083252Y-116796666D01*
X213083252Y-116796666D02*
X213154680Y-116820475D01*
X213154680Y-116820475D02*
X213202300Y-116868094D01*
X213202300Y-116868094D02*
X213226109Y-116939523D01*
X213226109Y-116939523D02*
X213226109Y-116987142D01*
X213226109Y-116296666D02*
X213226109Y-116582380D01*
X213226109Y-116439523D02*
X212726109Y-116439523D01*
X212726109Y-116439523D02*
X212797538Y-116487142D01*
X212797538Y-116487142D02*
X212845157Y-116534761D01*
X212845157Y-116534761D02*
X212868966Y-116582380D01*
%TO.C,U1*%
D13*
X189673400Y-107972100D02*
X193793400Y-107972100D01*
X189673400Y-108067100D02*
X189673400Y-107972100D01*
X189673400Y-113092100D02*
X189673400Y-112997100D01*
X193793400Y-107972100D02*
X193793400Y-108067100D01*
X193793400Y-112997100D02*
X193793400Y-113092100D01*
X193793400Y-113092100D02*
X189673400Y-113092100D01*
X189133400Y-108062100D02*
X188893400Y-107732100D01*
X189373400Y-107732100D01*
X189133400Y-108062100D01*
G36*
X189133400Y-108062100D02*
G01*
X188893400Y-107732100D01*
X189373400Y-107732100D01*
X189133400Y-108062100D01*
G37*
%TO.C,U3*%
X189841600Y-117107500D02*
X193961600Y-117107500D01*
X189841600Y-117202500D02*
X189841600Y-117107500D01*
X189841600Y-122227500D02*
X189841600Y-122132500D01*
X193961600Y-117107500D02*
X193961600Y-117202500D01*
X193961600Y-122132500D02*
X193961600Y-122227500D01*
X193961600Y-122227500D02*
X189841600Y-122227500D01*
X189301600Y-117197500D02*
X189061600Y-116867500D01*
X189541600Y-116867500D01*
X189301600Y-117197500D01*
G36*
X189301600Y-117197500D02*
G01*
X189061600Y-116867500D01*
X189541600Y-116867500D01*
X189301600Y-117197500D01*
G37*
%TO.C,R3*%
X212752500Y-108783641D02*
X212752500Y-108476359D01*
X213512500Y-108783641D02*
X213512500Y-108476359D01*
%TO.C,D1*%
D12*
X211137500Y-107240000D02*
G75*
G02*
X211037500Y-107240000I-50000J0D01*
G01*
X211037500Y-107240000D02*
G75*
G02*
X211137500Y-107240000I50000J0D01*
G01*
%TO.C,Y1*%
D13*
X178060000Y-113200000D02*
X178060000Y-108500000D01*
X181580000Y-108500000D02*
X181580000Y-113200000D01*
X178060000Y-108500000D02*
G75*
G02*
X181580000Y-108500000I1760000J0D01*
G01*
X181580000Y-113200000D02*
G75*
G02*
X178060000Y-113200000I-1760000J0D01*
G01*
%TO.C,R2*%
X197953400Y-113805559D02*
X197953400Y-114112841D01*
X198713400Y-113805559D02*
X198713400Y-114112841D01*
%TO.C,R1*%
X197851800Y-110488759D02*
X197851800Y-110796041D01*
X198611800Y-110488759D02*
X198611800Y-110796041D01*
%TO.C,J1*%
X211620000Y-110170000D02*
X213000000Y-110170000D01*
X211620000Y-111550000D02*
X211620000Y-110170000D01*
X211620000Y-112820000D02*
X211620000Y-123090000D01*
X211620000Y-112820000D02*
X214380000Y-112820000D01*
X211620000Y-123090000D02*
X214380000Y-123090000D01*
X214380000Y-112820000D02*
X214380000Y-123090000D01*
%TD*%
M02*
