%TF.GenerationSoftware,KiCad,Pcbnew,10.0.1*%
%TF.CreationDate,2026-06-24T22:53:49+05:30*%
%TF.ProjectId,RTC_Design,5254435f-4465-4736-9967-6e2e6b696361,rev?*%
%TF.SameCoordinates,Original*%
%TF.FileFunction,Drillmap*%
%TF.FilePolarity,Positive*%
%FSLAX45Y45*%
G04 Gerber Fmt 4.5, Leading zero omitted, Abs format (unit mm)*
G04 Created by KiCad (PCBNEW 10.0.1) date 2026-06-24 22:53:49*
%MOMM*%
%LPD*%
G01*
G04 APERTURE LIST*
%ADD10C,0.050000*%
%ADD11C,0.200000*%
%ADD12C,0.100000*%
G04 APERTURE END LIST*
D10*
X17582000Y-10252500D02*
X21574000Y-10252500D01*
X21574000Y-12726000D01*
X17582000Y-12726000D01*
X17582000Y-10252500D01*
X17972611Y-10465000D02*
G75*
G02*
X17699389Y-10465000I-136611J0D01*
G01*
X17699389Y-10465000D02*
G75*
G02*
X17972611Y-10465000I136611J0D01*
G01*
X17983611Y-12546000D02*
G75*
G02*
X17710389Y-12546000I-136611J0D01*
G01*
X17710389Y-12546000D02*
G75*
G02*
X17983611Y-12546000I136611J0D01*
G01*
X21497611Y-12546000D02*
G75*
G02*
X21224389Y-12546000I-136611J0D01*
G01*
X21224389Y-12546000D02*
G75*
G02*
X21497611Y-12546000I136611J0D01*
G01*
X21506611Y-10462500D02*
G75*
G02*
X21233389Y-10462500I-136611J0D01*
G01*
X21233389Y-10462500D02*
G75*
G02*
X21506611Y-10462500I136611J0D01*
G01*
D11*
D12*
X18344000Y-11171000D02*
X18374000Y-11201000D01*
X18374000Y-11171000D02*
X18344000Y-11201000D01*
X19129000Y-11156000D02*
X19159000Y-11186000D01*
X19159000Y-11156000D02*
X19129000Y-11186000D01*
X20014000Y-11172000D02*
X20044000Y-11202000D01*
X20044000Y-11172000D02*
X20014000Y-11202000D01*
X20648000Y-12154000D02*
X20678000Y-12184000D01*
X20678000Y-12154000D02*
X20648000Y-12184000D01*
X21117000Y-10851000D02*
X21147000Y-10881000D01*
X21147000Y-10851000D02*
X21117000Y-10881000D01*
X18022000Y-10895000D02*
G75*
G02*
X17942000Y-10895000I-40000J0D01*
G01*
X17942000Y-10895000D02*
G75*
G02*
X18022000Y-10895000I40000J0D01*
G01*
X18022000Y-11275000D02*
G75*
G02*
X17942000Y-11275000I-40000J0D01*
G01*
X17942000Y-11275000D02*
G75*
G02*
X18022000Y-11275000I40000J0D01*
G01*
X21300000Y-11105000D02*
X21300000Y-11205000D01*
X21250000Y-11155000D02*
X21350000Y-11155000D01*
X21300000Y-11359000D02*
X21300000Y-11459000D01*
X21250000Y-11409000D02*
X21350000Y-11409000D01*
X21300000Y-11613000D02*
X21300000Y-11713000D01*
X21250000Y-11663000D02*
X21350000Y-11663000D01*
X21300000Y-11867000D02*
X21300000Y-11967000D01*
X21250000Y-11917000D02*
X21350000Y-11917000D01*
X21300000Y-12121000D02*
X21300000Y-12221000D01*
X21250000Y-12171000D02*
X21350000Y-12171000D01*
D11*
X17840277Y-13039984D02*
X17840277Y-12839984D01*
X17840277Y-12839984D02*
X17887896Y-12839984D01*
X17887896Y-12839984D02*
X17916467Y-12849508D01*
X17916467Y-12849508D02*
X17935515Y-12868555D01*
X17935515Y-12868555D02*
X17945039Y-12887603D01*
X17945039Y-12887603D02*
X17954563Y-12925698D01*
X17954563Y-12925698D02*
X17954563Y-12954269D01*
X17954563Y-12954269D02*
X17945039Y-12992365D01*
X17945039Y-12992365D02*
X17935515Y-13011412D01*
X17935515Y-13011412D02*
X17916467Y-13030460D01*
X17916467Y-13030460D02*
X17887896Y-13039984D01*
X17887896Y-13039984D02*
X17840277Y-13039984D01*
X18040277Y-13039984D02*
X18040277Y-12906650D01*
X18040277Y-12944746D02*
X18049801Y-12925698D01*
X18049801Y-12925698D02*
X18059324Y-12916174D01*
X18059324Y-12916174D02*
X18078372Y-12906650D01*
X18078372Y-12906650D02*
X18097420Y-12906650D01*
X18164086Y-13039984D02*
X18164086Y-12906650D01*
X18164086Y-12839984D02*
X18154563Y-12849508D01*
X18154563Y-12849508D02*
X18164086Y-12859031D01*
X18164086Y-12859031D02*
X18173610Y-12849508D01*
X18173610Y-12849508D02*
X18164086Y-12839984D01*
X18164086Y-12839984D02*
X18164086Y-12859031D01*
X18287896Y-13039984D02*
X18268848Y-13030460D01*
X18268848Y-13030460D02*
X18259324Y-13011412D01*
X18259324Y-13011412D02*
X18259324Y-12839984D01*
X18392658Y-13039984D02*
X18373610Y-13030460D01*
X18373610Y-13030460D02*
X18364086Y-13011412D01*
X18364086Y-13011412D02*
X18364086Y-12839984D01*
X18621229Y-13039984D02*
X18621229Y-12839984D01*
X18621229Y-12839984D02*
X18687896Y-12982841D01*
X18687896Y-12982841D02*
X18754563Y-12839984D01*
X18754563Y-12839984D02*
X18754563Y-13039984D01*
X18935515Y-13039984D02*
X18935515Y-12935222D01*
X18935515Y-12935222D02*
X18925991Y-12916174D01*
X18925991Y-12916174D02*
X18906944Y-12906650D01*
X18906944Y-12906650D02*
X18868848Y-12906650D01*
X18868848Y-12906650D02*
X18849801Y-12916174D01*
X18935515Y-13030460D02*
X18916467Y-13039984D01*
X18916467Y-13039984D02*
X18868848Y-13039984D01*
X18868848Y-13039984D02*
X18849801Y-13030460D01*
X18849801Y-13030460D02*
X18840277Y-13011412D01*
X18840277Y-13011412D02*
X18840277Y-12992365D01*
X18840277Y-12992365D02*
X18849801Y-12973317D01*
X18849801Y-12973317D02*
X18868848Y-12963793D01*
X18868848Y-12963793D02*
X18916467Y-12963793D01*
X18916467Y-12963793D02*
X18935515Y-12954269D01*
X19030753Y-12906650D02*
X19030753Y-13106650D01*
X19030753Y-12916174D02*
X19049801Y-12906650D01*
X19049801Y-12906650D02*
X19087896Y-12906650D01*
X19087896Y-12906650D02*
X19106944Y-12916174D01*
X19106944Y-12916174D02*
X19116467Y-12925698D01*
X19116467Y-12925698D02*
X19125991Y-12944746D01*
X19125991Y-12944746D02*
X19125991Y-13001888D01*
X19125991Y-13001888D02*
X19116467Y-13020936D01*
X19116467Y-13020936D02*
X19106944Y-13030460D01*
X19106944Y-13030460D02*
X19087896Y-13039984D01*
X19087896Y-13039984D02*
X19049801Y-13039984D01*
X19049801Y-13039984D02*
X19030753Y-13030460D01*
X19211705Y-13020936D02*
X19221229Y-13030460D01*
X19221229Y-13030460D02*
X19211705Y-13039984D01*
X19211705Y-13039984D02*
X19202182Y-13030460D01*
X19202182Y-13030460D02*
X19211705Y-13020936D01*
X19211705Y-13020936D02*
X19211705Y-13039984D01*
X19211705Y-12916174D02*
X19221229Y-12925698D01*
X19221229Y-12925698D02*
X19211705Y-12935222D01*
X19211705Y-12935222D02*
X19202182Y-12925698D01*
X19202182Y-12925698D02*
X19211705Y-12916174D01*
X19211705Y-12916174D02*
X19211705Y-12935222D01*
D12*
X17549500Y-13353500D02*
X17579500Y-13383500D01*
X17579500Y-13353500D02*
X17549500Y-13383500D01*
D11*
X17878372Y-13259984D02*
X17897420Y-13259984D01*
X17897420Y-13259984D02*
X17916467Y-13269508D01*
X17916467Y-13269508D02*
X17925991Y-13279031D01*
X17925991Y-13279031D02*
X17935515Y-13298079D01*
X17935515Y-13298079D02*
X17945039Y-13336174D01*
X17945039Y-13336174D02*
X17945039Y-13383793D01*
X17945039Y-13383793D02*
X17935515Y-13421888D01*
X17935515Y-13421888D02*
X17925991Y-13440936D01*
X17925991Y-13440936D02*
X17916467Y-13450460D01*
X17916467Y-13450460D02*
X17897420Y-13459984D01*
X17897420Y-13459984D02*
X17878372Y-13459984D01*
X17878372Y-13459984D02*
X17859324Y-13450460D01*
X17859324Y-13450460D02*
X17849801Y-13440936D01*
X17849801Y-13440936D02*
X17840277Y-13421888D01*
X17840277Y-13421888D02*
X17830753Y-13383793D01*
X17830753Y-13383793D02*
X17830753Y-13336174D01*
X17830753Y-13336174D02*
X17840277Y-13298079D01*
X17840277Y-13298079D02*
X17849801Y-13279031D01*
X17849801Y-13279031D02*
X17859324Y-13269508D01*
X17859324Y-13269508D02*
X17878372Y-13259984D01*
X18030753Y-13440936D02*
X18040277Y-13450460D01*
X18040277Y-13450460D02*
X18030753Y-13459984D01*
X18030753Y-13459984D02*
X18021229Y-13450460D01*
X18021229Y-13450460D02*
X18030753Y-13440936D01*
X18030753Y-13440936D02*
X18030753Y-13459984D01*
X18106944Y-13259984D02*
X18230753Y-13259984D01*
X18230753Y-13259984D02*
X18164086Y-13336174D01*
X18164086Y-13336174D02*
X18192658Y-13336174D01*
X18192658Y-13336174D02*
X18211705Y-13345698D01*
X18211705Y-13345698D02*
X18221229Y-13355222D01*
X18221229Y-13355222D02*
X18230753Y-13374269D01*
X18230753Y-13374269D02*
X18230753Y-13421888D01*
X18230753Y-13421888D02*
X18221229Y-13440936D01*
X18221229Y-13440936D02*
X18211705Y-13450460D01*
X18211705Y-13450460D02*
X18192658Y-13459984D01*
X18192658Y-13459984D02*
X18135515Y-13459984D01*
X18135515Y-13459984D02*
X18116467Y-13450460D01*
X18116467Y-13450460D02*
X18106944Y-13440936D01*
X18354563Y-13259984D02*
X18373610Y-13259984D01*
X18373610Y-13259984D02*
X18392658Y-13269508D01*
X18392658Y-13269508D02*
X18402182Y-13279031D01*
X18402182Y-13279031D02*
X18411705Y-13298079D01*
X18411705Y-13298079D02*
X18421229Y-13336174D01*
X18421229Y-13336174D02*
X18421229Y-13383793D01*
X18421229Y-13383793D02*
X18411705Y-13421888D01*
X18411705Y-13421888D02*
X18402182Y-13440936D01*
X18402182Y-13440936D02*
X18392658Y-13450460D01*
X18392658Y-13450460D02*
X18373610Y-13459984D01*
X18373610Y-13459984D02*
X18354563Y-13459984D01*
X18354563Y-13459984D02*
X18335515Y-13450460D01*
X18335515Y-13450460D02*
X18325991Y-13440936D01*
X18325991Y-13440936D02*
X18316467Y-13421888D01*
X18316467Y-13421888D02*
X18306944Y-13383793D01*
X18306944Y-13383793D02*
X18306944Y-13336174D01*
X18306944Y-13336174D02*
X18316467Y-13298079D01*
X18316467Y-13298079D02*
X18325991Y-13279031D01*
X18325991Y-13279031D02*
X18335515Y-13269508D01*
X18335515Y-13269508D02*
X18354563Y-13259984D01*
X18545039Y-13259984D02*
X18564086Y-13259984D01*
X18564086Y-13259984D02*
X18583134Y-13269508D01*
X18583134Y-13269508D02*
X18592658Y-13279031D01*
X18592658Y-13279031D02*
X18602182Y-13298079D01*
X18602182Y-13298079D02*
X18611705Y-13336174D01*
X18611705Y-13336174D02*
X18611705Y-13383793D01*
X18611705Y-13383793D02*
X18602182Y-13421888D01*
X18602182Y-13421888D02*
X18592658Y-13440936D01*
X18592658Y-13440936D02*
X18583134Y-13450460D01*
X18583134Y-13450460D02*
X18564086Y-13459984D01*
X18564086Y-13459984D02*
X18545039Y-13459984D01*
X18545039Y-13459984D02*
X18525991Y-13450460D01*
X18525991Y-13450460D02*
X18516467Y-13440936D01*
X18516467Y-13440936D02*
X18506944Y-13421888D01*
X18506944Y-13421888D02*
X18497420Y-13383793D01*
X18497420Y-13383793D02*
X18497420Y-13336174D01*
X18497420Y-13336174D02*
X18506944Y-13298079D01*
X18506944Y-13298079D02*
X18516467Y-13279031D01*
X18516467Y-13279031D02*
X18525991Y-13269508D01*
X18525991Y-13269508D02*
X18545039Y-13259984D01*
X18697420Y-13459984D02*
X18697420Y-13326650D01*
X18697420Y-13345698D02*
X18706944Y-13336174D01*
X18706944Y-13336174D02*
X18725991Y-13326650D01*
X18725991Y-13326650D02*
X18754563Y-13326650D01*
X18754563Y-13326650D02*
X18773610Y-13336174D01*
X18773610Y-13336174D02*
X18783134Y-13355222D01*
X18783134Y-13355222D02*
X18783134Y-13459984D01*
X18783134Y-13355222D02*
X18792658Y-13336174D01*
X18792658Y-13336174D02*
X18811705Y-13326650D01*
X18811705Y-13326650D02*
X18840277Y-13326650D01*
X18840277Y-13326650D02*
X18859325Y-13336174D01*
X18859325Y-13336174D02*
X18868848Y-13355222D01*
X18868848Y-13355222D02*
X18868848Y-13459984D01*
X18964086Y-13459984D02*
X18964086Y-13326650D01*
X18964086Y-13345698D02*
X18973610Y-13336174D01*
X18973610Y-13336174D02*
X18992658Y-13326650D01*
X18992658Y-13326650D02*
X19021229Y-13326650D01*
X19021229Y-13326650D02*
X19040277Y-13336174D01*
X19040277Y-13336174D02*
X19049801Y-13355222D01*
X19049801Y-13355222D02*
X19049801Y-13459984D01*
X19049801Y-13355222D02*
X19059325Y-13336174D01*
X19059325Y-13336174D02*
X19078372Y-13326650D01*
X19078372Y-13326650D02*
X19106944Y-13326650D01*
X19106944Y-13326650D02*
X19125991Y-13336174D01*
X19125991Y-13336174D02*
X19135515Y-13355222D01*
X19135515Y-13355222D02*
X19135515Y-13459984D01*
X19525991Y-13250460D02*
X19354563Y-13507603D01*
X19783134Y-13259984D02*
X19802182Y-13259984D01*
X19802182Y-13259984D02*
X19821229Y-13269508D01*
X19821229Y-13269508D02*
X19830753Y-13279031D01*
X19830753Y-13279031D02*
X19840277Y-13298079D01*
X19840277Y-13298079D02*
X19849801Y-13336174D01*
X19849801Y-13336174D02*
X19849801Y-13383793D01*
X19849801Y-13383793D02*
X19840277Y-13421888D01*
X19840277Y-13421888D02*
X19830753Y-13440936D01*
X19830753Y-13440936D02*
X19821229Y-13450460D01*
X19821229Y-13450460D02*
X19802182Y-13459984D01*
X19802182Y-13459984D02*
X19783134Y-13459984D01*
X19783134Y-13459984D02*
X19764087Y-13450460D01*
X19764087Y-13450460D02*
X19754563Y-13440936D01*
X19754563Y-13440936D02*
X19745039Y-13421888D01*
X19745039Y-13421888D02*
X19735515Y-13383793D01*
X19735515Y-13383793D02*
X19735515Y-13336174D01*
X19735515Y-13336174D02*
X19745039Y-13298079D01*
X19745039Y-13298079D02*
X19754563Y-13279031D01*
X19754563Y-13279031D02*
X19764087Y-13269508D01*
X19764087Y-13269508D02*
X19783134Y-13259984D01*
X19935515Y-13440936D02*
X19945039Y-13450460D01*
X19945039Y-13450460D02*
X19935515Y-13459984D01*
X19935515Y-13459984D02*
X19925991Y-13450460D01*
X19925991Y-13450460D02*
X19935515Y-13440936D01*
X19935515Y-13440936D02*
X19935515Y-13459984D01*
X20068848Y-13259984D02*
X20087896Y-13259984D01*
X20087896Y-13259984D02*
X20106944Y-13269508D01*
X20106944Y-13269508D02*
X20116468Y-13279031D01*
X20116468Y-13279031D02*
X20125991Y-13298079D01*
X20125991Y-13298079D02*
X20135515Y-13336174D01*
X20135515Y-13336174D02*
X20135515Y-13383793D01*
X20135515Y-13383793D02*
X20125991Y-13421888D01*
X20125991Y-13421888D02*
X20116468Y-13440936D01*
X20116468Y-13440936D02*
X20106944Y-13450460D01*
X20106944Y-13450460D02*
X20087896Y-13459984D01*
X20087896Y-13459984D02*
X20068848Y-13459984D01*
X20068848Y-13459984D02*
X20049801Y-13450460D01*
X20049801Y-13450460D02*
X20040277Y-13440936D01*
X20040277Y-13440936D02*
X20030753Y-13421888D01*
X20030753Y-13421888D02*
X20021229Y-13383793D01*
X20021229Y-13383793D02*
X20021229Y-13336174D01*
X20021229Y-13336174D02*
X20030753Y-13298079D01*
X20030753Y-13298079D02*
X20040277Y-13279031D01*
X20040277Y-13279031D02*
X20049801Y-13269508D01*
X20049801Y-13269508D02*
X20068848Y-13259984D01*
X20325991Y-13459984D02*
X20211706Y-13459984D01*
X20268848Y-13459984D02*
X20268848Y-13259984D01*
X20268848Y-13259984D02*
X20249801Y-13288555D01*
X20249801Y-13288555D02*
X20230753Y-13307603D01*
X20230753Y-13307603D02*
X20211706Y-13317127D01*
X20516468Y-13459984D02*
X20402182Y-13459984D01*
X20459325Y-13459984D02*
X20459325Y-13259984D01*
X20459325Y-13259984D02*
X20440277Y-13288555D01*
X20440277Y-13288555D02*
X20421229Y-13307603D01*
X20421229Y-13307603D02*
X20402182Y-13317127D01*
X20630753Y-13345698D02*
X20611706Y-13336174D01*
X20611706Y-13336174D02*
X20602182Y-13326650D01*
X20602182Y-13326650D02*
X20592658Y-13307603D01*
X20592658Y-13307603D02*
X20592658Y-13298079D01*
X20592658Y-13298079D02*
X20602182Y-13279031D01*
X20602182Y-13279031D02*
X20611706Y-13269508D01*
X20611706Y-13269508D02*
X20630753Y-13259984D01*
X20630753Y-13259984D02*
X20668849Y-13259984D01*
X20668849Y-13259984D02*
X20687896Y-13269508D01*
X20687896Y-13269508D02*
X20697420Y-13279031D01*
X20697420Y-13279031D02*
X20706944Y-13298079D01*
X20706944Y-13298079D02*
X20706944Y-13307603D01*
X20706944Y-13307603D02*
X20697420Y-13326650D01*
X20697420Y-13326650D02*
X20687896Y-13336174D01*
X20687896Y-13336174D02*
X20668849Y-13345698D01*
X20668849Y-13345698D02*
X20630753Y-13345698D01*
X20630753Y-13345698D02*
X20611706Y-13355222D01*
X20611706Y-13355222D02*
X20602182Y-13364746D01*
X20602182Y-13364746D02*
X20592658Y-13383793D01*
X20592658Y-13383793D02*
X20592658Y-13421888D01*
X20592658Y-13421888D02*
X20602182Y-13440936D01*
X20602182Y-13440936D02*
X20611706Y-13450460D01*
X20611706Y-13450460D02*
X20630753Y-13459984D01*
X20630753Y-13459984D02*
X20668849Y-13459984D01*
X20668849Y-13459984D02*
X20687896Y-13450460D01*
X20687896Y-13450460D02*
X20697420Y-13440936D01*
X20697420Y-13440936D02*
X20706944Y-13421888D01*
X20706944Y-13421888D02*
X20706944Y-13383793D01*
X20706944Y-13383793D02*
X20697420Y-13364746D01*
X20697420Y-13364746D02*
X20687896Y-13355222D01*
X20687896Y-13355222D02*
X20668849Y-13345698D01*
X20783134Y-13259984D02*
X20783134Y-13298079D01*
X20859325Y-13259984D02*
X20859325Y-13298079D01*
X21154563Y-13536174D02*
X21145039Y-13526650D01*
X21145039Y-13526650D02*
X21125991Y-13498079D01*
X21125991Y-13498079D02*
X21116468Y-13479031D01*
X21116468Y-13479031D02*
X21106944Y-13450460D01*
X21106944Y-13450460D02*
X21097420Y-13402841D01*
X21097420Y-13402841D02*
X21097420Y-13364746D01*
X21097420Y-13364746D02*
X21106944Y-13317127D01*
X21106944Y-13317127D02*
X21116468Y-13288555D01*
X21116468Y-13288555D02*
X21125991Y-13269508D01*
X21125991Y-13269508D02*
X21145039Y-13240936D01*
X21145039Y-13240936D02*
X21154563Y-13231412D01*
X21325991Y-13259984D02*
X21230753Y-13259984D01*
X21230753Y-13259984D02*
X21221230Y-13355222D01*
X21221230Y-13355222D02*
X21230753Y-13345698D01*
X21230753Y-13345698D02*
X21249801Y-13336174D01*
X21249801Y-13336174D02*
X21297420Y-13336174D01*
X21297420Y-13336174D02*
X21316468Y-13345698D01*
X21316468Y-13345698D02*
X21325991Y-13355222D01*
X21325991Y-13355222D02*
X21335515Y-13374269D01*
X21335515Y-13374269D02*
X21335515Y-13421888D01*
X21335515Y-13421888D02*
X21325991Y-13440936D01*
X21325991Y-13440936D02*
X21316468Y-13450460D01*
X21316468Y-13450460D02*
X21297420Y-13459984D01*
X21297420Y-13459984D02*
X21249801Y-13459984D01*
X21249801Y-13459984D02*
X21230753Y-13450460D01*
X21230753Y-13450460D02*
X21221230Y-13440936D01*
X21573611Y-13459984D02*
X21573611Y-13259984D01*
X21659325Y-13459984D02*
X21659325Y-13355222D01*
X21659325Y-13355222D02*
X21649801Y-13336174D01*
X21649801Y-13336174D02*
X21630753Y-13326650D01*
X21630753Y-13326650D02*
X21602182Y-13326650D01*
X21602182Y-13326650D02*
X21583134Y-13336174D01*
X21583134Y-13336174D02*
X21573611Y-13345698D01*
X21783134Y-13459984D02*
X21764087Y-13450460D01*
X21764087Y-13450460D02*
X21754563Y-13440936D01*
X21754563Y-13440936D02*
X21745039Y-13421888D01*
X21745039Y-13421888D02*
X21745039Y-13364746D01*
X21745039Y-13364746D02*
X21754563Y-13345698D01*
X21754563Y-13345698D02*
X21764087Y-13336174D01*
X21764087Y-13336174D02*
X21783134Y-13326650D01*
X21783134Y-13326650D02*
X21811706Y-13326650D01*
X21811706Y-13326650D02*
X21830753Y-13336174D01*
X21830753Y-13336174D02*
X21840277Y-13345698D01*
X21840277Y-13345698D02*
X21849801Y-13364746D01*
X21849801Y-13364746D02*
X21849801Y-13421888D01*
X21849801Y-13421888D02*
X21840277Y-13440936D01*
X21840277Y-13440936D02*
X21830753Y-13450460D01*
X21830753Y-13450460D02*
X21811706Y-13459984D01*
X21811706Y-13459984D02*
X21783134Y-13459984D01*
X21964087Y-13459984D02*
X21945039Y-13450460D01*
X21945039Y-13450460D02*
X21935515Y-13431412D01*
X21935515Y-13431412D02*
X21935515Y-13259984D01*
X22116468Y-13450460D02*
X22097420Y-13459984D01*
X22097420Y-13459984D02*
X22059325Y-13459984D01*
X22059325Y-13459984D02*
X22040277Y-13450460D01*
X22040277Y-13450460D02*
X22030753Y-13431412D01*
X22030753Y-13431412D02*
X22030753Y-13355222D01*
X22030753Y-13355222D02*
X22040277Y-13336174D01*
X22040277Y-13336174D02*
X22059325Y-13326650D01*
X22059325Y-13326650D02*
X22097420Y-13326650D01*
X22097420Y-13326650D02*
X22116468Y-13336174D01*
X22116468Y-13336174D02*
X22125992Y-13355222D01*
X22125992Y-13355222D02*
X22125992Y-13374269D01*
X22125992Y-13374269D02*
X22030753Y-13393317D01*
X22202182Y-13450460D02*
X22221230Y-13459984D01*
X22221230Y-13459984D02*
X22259325Y-13459984D01*
X22259325Y-13459984D02*
X22278373Y-13450460D01*
X22278373Y-13450460D02*
X22287896Y-13431412D01*
X22287896Y-13431412D02*
X22287896Y-13421888D01*
X22287896Y-13421888D02*
X22278373Y-13402841D01*
X22278373Y-13402841D02*
X22259325Y-13393317D01*
X22259325Y-13393317D02*
X22230753Y-13393317D01*
X22230753Y-13393317D02*
X22211706Y-13383793D01*
X22211706Y-13383793D02*
X22202182Y-13364746D01*
X22202182Y-13364746D02*
X22202182Y-13355222D01*
X22202182Y-13355222D02*
X22211706Y-13336174D01*
X22211706Y-13336174D02*
X22230753Y-13326650D01*
X22230753Y-13326650D02*
X22259325Y-13326650D01*
X22259325Y-13326650D02*
X22278373Y-13336174D01*
X22354563Y-13536174D02*
X22364087Y-13526650D01*
X22364087Y-13526650D02*
X22383134Y-13498079D01*
X22383134Y-13498079D02*
X22392658Y-13479031D01*
X22392658Y-13479031D02*
X22402182Y-13450460D01*
X22402182Y-13450460D02*
X22411706Y-13402841D01*
X22411706Y-13402841D02*
X22411706Y-13364746D01*
X22411706Y-13364746D02*
X22402182Y-13317127D01*
X22402182Y-13317127D02*
X22392658Y-13288555D01*
X22392658Y-13288555D02*
X22383134Y-13269508D01*
X22383134Y-13269508D02*
X22364087Y-13240936D01*
X22364087Y-13240936D02*
X22354563Y-13231412D01*
D12*
X17579500Y-13632500D02*
G75*
G02*
X17499500Y-13632500I-40000J0D01*
G01*
X17499500Y-13632500D02*
G75*
G02*
X17579500Y-13632500I40000J0D01*
G01*
D11*
X17878372Y-13523984D02*
X17897420Y-13523984D01*
X17897420Y-13523984D02*
X17916467Y-13533508D01*
X17916467Y-13533508D02*
X17925991Y-13543031D01*
X17925991Y-13543031D02*
X17935515Y-13562079D01*
X17935515Y-13562079D02*
X17945039Y-13600174D01*
X17945039Y-13600174D02*
X17945039Y-13647793D01*
X17945039Y-13647793D02*
X17935515Y-13685888D01*
X17935515Y-13685888D02*
X17925991Y-13704936D01*
X17925991Y-13704936D02*
X17916467Y-13714460D01*
X17916467Y-13714460D02*
X17897420Y-13723984D01*
X17897420Y-13723984D02*
X17878372Y-13723984D01*
X17878372Y-13723984D02*
X17859324Y-13714460D01*
X17859324Y-13714460D02*
X17849801Y-13704936D01*
X17849801Y-13704936D02*
X17840277Y-13685888D01*
X17840277Y-13685888D02*
X17830753Y-13647793D01*
X17830753Y-13647793D02*
X17830753Y-13600174D01*
X17830753Y-13600174D02*
X17840277Y-13562079D01*
X17840277Y-13562079D02*
X17849801Y-13543031D01*
X17849801Y-13543031D02*
X17859324Y-13533508D01*
X17859324Y-13533508D02*
X17878372Y-13523984D01*
X18030753Y-13704936D02*
X18040277Y-13714460D01*
X18040277Y-13714460D02*
X18030753Y-13723984D01*
X18030753Y-13723984D02*
X18021229Y-13714460D01*
X18021229Y-13714460D02*
X18030753Y-13704936D01*
X18030753Y-13704936D02*
X18030753Y-13723984D01*
X18154563Y-13609698D02*
X18135515Y-13600174D01*
X18135515Y-13600174D02*
X18125991Y-13590650D01*
X18125991Y-13590650D02*
X18116467Y-13571603D01*
X18116467Y-13571603D02*
X18116467Y-13562079D01*
X18116467Y-13562079D02*
X18125991Y-13543031D01*
X18125991Y-13543031D02*
X18135515Y-13533508D01*
X18135515Y-13533508D02*
X18154563Y-13523984D01*
X18154563Y-13523984D02*
X18192658Y-13523984D01*
X18192658Y-13523984D02*
X18211705Y-13533508D01*
X18211705Y-13533508D02*
X18221229Y-13543031D01*
X18221229Y-13543031D02*
X18230753Y-13562079D01*
X18230753Y-13562079D02*
X18230753Y-13571603D01*
X18230753Y-13571603D02*
X18221229Y-13590650D01*
X18221229Y-13590650D02*
X18211705Y-13600174D01*
X18211705Y-13600174D02*
X18192658Y-13609698D01*
X18192658Y-13609698D02*
X18154563Y-13609698D01*
X18154563Y-13609698D02*
X18135515Y-13619222D01*
X18135515Y-13619222D02*
X18125991Y-13628746D01*
X18125991Y-13628746D02*
X18116467Y-13647793D01*
X18116467Y-13647793D02*
X18116467Y-13685888D01*
X18116467Y-13685888D02*
X18125991Y-13704936D01*
X18125991Y-13704936D02*
X18135515Y-13714460D01*
X18135515Y-13714460D02*
X18154563Y-13723984D01*
X18154563Y-13723984D02*
X18192658Y-13723984D01*
X18192658Y-13723984D02*
X18211705Y-13714460D01*
X18211705Y-13714460D02*
X18221229Y-13704936D01*
X18221229Y-13704936D02*
X18230753Y-13685888D01*
X18230753Y-13685888D02*
X18230753Y-13647793D01*
X18230753Y-13647793D02*
X18221229Y-13628746D01*
X18221229Y-13628746D02*
X18211705Y-13619222D01*
X18211705Y-13619222D02*
X18192658Y-13609698D01*
X18354563Y-13523984D02*
X18373610Y-13523984D01*
X18373610Y-13523984D02*
X18392658Y-13533508D01*
X18392658Y-13533508D02*
X18402182Y-13543031D01*
X18402182Y-13543031D02*
X18411705Y-13562079D01*
X18411705Y-13562079D02*
X18421229Y-13600174D01*
X18421229Y-13600174D02*
X18421229Y-13647793D01*
X18421229Y-13647793D02*
X18411705Y-13685888D01*
X18411705Y-13685888D02*
X18402182Y-13704936D01*
X18402182Y-13704936D02*
X18392658Y-13714460D01*
X18392658Y-13714460D02*
X18373610Y-13723984D01*
X18373610Y-13723984D02*
X18354563Y-13723984D01*
X18354563Y-13723984D02*
X18335515Y-13714460D01*
X18335515Y-13714460D02*
X18325991Y-13704936D01*
X18325991Y-13704936D02*
X18316467Y-13685888D01*
X18316467Y-13685888D02*
X18306944Y-13647793D01*
X18306944Y-13647793D02*
X18306944Y-13600174D01*
X18306944Y-13600174D02*
X18316467Y-13562079D01*
X18316467Y-13562079D02*
X18325991Y-13543031D01*
X18325991Y-13543031D02*
X18335515Y-13533508D01*
X18335515Y-13533508D02*
X18354563Y-13523984D01*
X18545039Y-13523984D02*
X18564086Y-13523984D01*
X18564086Y-13523984D02*
X18583134Y-13533508D01*
X18583134Y-13533508D02*
X18592658Y-13543031D01*
X18592658Y-13543031D02*
X18602182Y-13562079D01*
X18602182Y-13562079D02*
X18611705Y-13600174D01*
X18611705Y-13600174D02*
X18611705Y-13647793D01*
X18611705Y-13647793D02*
X18602182Y-13685888D01*
X18602182Y-13685888D02*
X18592658Y-13704936D01*
X18592658Y-13704936D02*
X18583134Y-13714460D01*
X18583134Y-13714460D02*
X18564086Y-13723984D01*
X18564086Y-13723984D02*
X18545039Y-13723984D01*
X18545039Y-13723984D02*
X18525991Y-13714460D01*
X18525991Y-13714460D02*
X18516467Y-13704936D01*
X18516467Y-13704936D02*
X18506944Y-13685888D01*
X18506944Y-13685888D02*
X18497420Y-13647793D01*
X18497420Y-13647793D02*
X18497420Y-13600174D01*
X18497420Y-13600174D02*
X18506944Y-13562079D01*
X18506944Y-13562079D02*
X18516467Y-13543031D01*
X18516467Y-13543031D02*
X18525991Y-13533508D01*
X18525991Y-13533508D02*
X18545039Y-13523984D01*
X18697420Y-13723984D02*
X18697420Y-13590650D01*
X18697420Y-13609698D02*
X18706944Y-13600174D01*
X18706944Y-13600174D02*
X18725991Y-13590650D01*
X18725991Y-13590650D02*
X18754563Y-13590650D01*
X18754563Y-13590650D02*
X18773610Y-13600174D01*
X18773610Y-13600174D02*
X18783134Y-13619222D01*
X18783134Y-13619222D02*
X18783134Y-13723984D01*
X18783134Y-13619222D02*
X18792658Y-13600174D01*
X18792658Y-13600174D02*
X18811705Y-13590650D01*
X18811705Y-13590650D02*
X18840277Y-13590650D01*
X18840277Y-13590650D02*
X18859325Y-13600174D01*
X18859325Y-13600174D02*
X18868848Y-13619222D01*
X18868848Y-13619222D02*
X18868848Y-13723984D01*
X18964086Y-13723984D02*
X18964086Y-13590650D01*
X18964086Y-13609698D02*
X18973610Y-13600174D01*
X18973610Y-13600174D02*
X18992658Y-13590650D01*
X18992658Y-13590650D02*
X19021229Y-13590650D01*
X19021229Y-13590650D02*
X19040277Y-13600174D01*
X19040277Y-13600174D02*
X19049801Y-13619222D01*
X19049801Y-13619222D02*
X19049801Y-13723984D01*
X19049801Y-13619222D02*
X19059325Y-13600174D01*
X19059325Y-13600174D02*
X19078372Y-13590650D01*
X19078372Y-13590650D02*
X19106944Y-13590650D01*
X19106944Y-13590650D02*
X19125991Y-13600174D01*
X19125991Y-13600174D02*
X19135515Y-13619222D01*
X19135515Y-13619222D02*
X19135515Y-13723984D01*
X19525991Y-13514460D02*
X19354563Y-13771603D01*
X19783134Y-13523984D02*
X19802182Y-13523984D01*
X19802182Y-13523984D02*
X19821229Y-13533508D01*
X19821229Y-13533508D02*
X19830753Y-13543031D01*
X19830753Y-13543031D02*
X19840277Y-13562079D01*
X19840277Y-13562079D02*
X19849801Y-13600174D01*
X19849801Y-13600174D02*
X19849801Y-13647793D01*
X19849801Y-13647793D02*
X19840277Y-13685888D01*
X19840277Y-13685888D02*
X19830753Y-13704936D01*
X19830753Y-13704936D02*
X19821229Y-13714460D01*
X19821229Y-13714460D02*
X19802182Y-13723984D01*
X19802182Y-13723984D02*
X19783134Y-13723984D01*
X19783134Y-13723984D02*
X19764087Y-13714460D01*
X19764087Y-13714460D02*
X19754563Y-13704936D01*
X19754563Y-13704936D02*
X19745039Y-13685888D01*
X19745039Y-13685888D02*
X19735515Y-13647793D01*
X19735515Y-13647793D02*
X19735515Y-13600174D01*
X19735515Y-13600174D02*
X19745039Y-13562079D01*
X19745039Y-13562079D02*
X19754563Y-13543031D01*
X19754563Y-13543031D02*
X19764087Y-13533508D01*
X19764087Y-13533508D02*
X19783134Y-13523984D01*
X19935515Y-13704936D02*
X19945039Y-13714460D01*
X19945039Y-13714460D02*
X19935515Y-13723984D01*
X19935515Y-13723984D02*
X19925991Y-13714460D01*
X19925991Y-13714460D02*
X19935515Y-13704936D01*
X19935515Y-13704936D02*
X19935515Y-13723984D01*
X20068848Y-13523984D02*
X20087896Y-13523984D01*
X20087896Y-13523984D02*
X20106944Y-13533508D01*
X20106944Y-13533508D02*
X20116468Y-13543031D01*
X20116468Y-13543031D02*
X20125991Y-13562079D01*
X20125991Y-13562079D02*
X20135515Y-13600174D01*
X20135515Y-13600174D02*
X20135515Y-13647793D01*
X20135515Y-13647793D02*
X20125991Y-13685888D01*
X20125991Y-13685888D02*
X20116468Y-13704936D01*
X20116468Y-13704936D02*
X20106944Y-13714460D01*
X20106944Y-13714460D02*
X20087896Y-13723984D01*
X20087896Y-13723984D02*
X20068848Y-13723984D01*
X20068848Y-13723984D02*
X20049801Y-13714460D01*
X20049801Y-13714460D02*
X20040277Y-13704936D01*
X20040277Y-13704936D02*
X20030753Y-13685888D01*
X20030753Y-13685888D02*
X20021229Y-13647793D01*
X20021229Y-13647793D02*
X20021229Y-13600174D01*
X20021229Y-13600174D02*
X20030753Y-13562079D01*
X20030753Y-13562079D02*
X20040277Y-13543031D01*
X20040277Y-13543031D02*
X20049801Y-13533508D01*
X20049801Y-13533508D02*
X20068848Y-13523984D01*
X20202182Y-13523984D02*
X20325991Y-13523984D01*
X20325991Y-13523984D02*
X20259325Y-13600174D01*
X20259325Y-13600174D02*
X20287896Y-13600174D01*
X20287896Y-13600174D02*
X20306944Y-13609698D01*
X20306944Y-13609698D02*
X20316468Y-13619222D01*
X20316468Y-13619222D02*
X20325991Y-13638269D01*
X20325991Y-13638269D02*
X20325991Y-13685888D01*
X20325991Y-13685888D02*
X20316468Y-13704936D01*
X20316468Y-13704936D02*
X20306944Y-13714460D01*
X20306944Y-13714460D02*
X20287896Y-13723984D01*
X20287896Y-13723984D02*
X20230753Y-13723984D01*
X20230753Y-13723984D02*
X20211706Y-13714460D01*
X20211706Y-13714460D02*
X20202182Y-13704936D01*
X20516468Y-13723984D02*
X20402182Y-13723984D01*
X20459325Y-13723984D02*
X20459325Y-13523984D01*
X20459325Y-13523984D02*
X20440277Y-13552555D01*
X20440277Y-13552555D02*
X20421229Y-13571603D01*
X20421229Y-13571603D02*
X20402182Y-13581127D01*
X20697420Y-13523984D02*
X20602182Y-13523984D01*
X20602182Y-13523984D02*
X20592658Y-13619222D01*
X20592658Y-13619222D02*
X20602182Y-13609698D01*
X20602182Y-13609698D02*
X20621229Y-13600174D01*
X20621229Y-13600174D02*
X20668849Y-13600174D01*
X20668849Y-13600174D02*
X20687896Y-13609698D01*
X20687896Y-13609698D02*
X20697420Y-13619222D01*
X20697420Y-13619222D02*
X20706944Y-13638269D01*
X20706944Y-13638269D02*
X20706944Y-13685888D01*
X20706944Y-13685888D02*
X20697420Y-13704936D01*
X20697420Y-13704936D02*
X20687896Y-13714460D01*
X20687896Y-13714460D02*
X20668849Y-13723984D01*
X20668849Y-13723984D02*
X20621229Y-13723984D01*
X20621229Y-13723984D02*
X20602182Y-13714460D01*
X20602182Y-13714460D02*
X20592658Y-13704936D01*
X20783134Y-13523984D02*
X20783134Y-13562079D01*
X20859325Y-13523984D02*
X20859325Y-13562079D01*
X21154563Y-13800174D02*
X21145039Y-13790650D01*
X21145039Y-13790650D02*
X21125991Y-13762079D01*
X21125991Y-13762079D02*
X21116468Y-13743031D01*
X21116468Y-13743031D02*
X21106944Y-13714460D01*
X21106944Y-13714460D02*
X21097420Y-13666841D01*
X21097420Y-13666841D02*
X21097420Y-13628746D01*
X21097420Y-13628746D02*
X21106944Y-13581127D01*
X21106944Y-13581127D02*
X21116468Y-13552555D01*
X21116468Y-13552555D02*
X21125991Y-13533508D01*
X21125991Y-13533508D02*
X21145039Y-13504936D01*
X21145039Y-13504936D02*
X21154563Y-13495412D01*
X21221230Y-13543031D02*
X21230753Y-13533508D01*
X21230753Y-13533508D02*
X21249801Y-13523984D01*
X21249801Y-13523984D02*
X21297420Y-13523984D01*
X21297420Y-13523984D02*
X21316468Y-13533508D01*
X21316468Y-13533508D02*
X21325991Y-13543031D01*
X21325991Y-13543031D02*
X21335515Y-13562079D01*
X21335515Y-13562079D02*
X21335515Y-13581127D01*
X21335515Y-13581127D02*
X21325991Y-13609698D01*
X21325991Y-13609698D02*
X21211706Y-13723984D01*
X21211706Y-13723984D02*
X21335515Y-13723984D01*
X21573611Y-13723984D02*
X21573611Y-13523984D01*
X21659325Y-13723984D02*
X21659325Y-13619222D01*
X21659325Y-13619222D02*
X21649801Y-13600174D01*
X21649801Y-13600174D02*
X21630753Y-13590650D01*
X21630753Y-13590650D02*
X21602182Y-13590650D01*
X21602182Y-13590650D02*
X21583134Y-13600174D01*
X21583134Y-13600174D02*
X21573611Y-13609698D01*
X21783134Y-13723984D02*
X21764087Y-13714460D01*
X21764087Y-13714460D02*
X21754563Y-13704936D01*
X21754563Y-13704936D02*
X21745039Y-13685888D01*
X21745039Y-13685888D02*
X21745039Y-13628746D01*
X21745039Y-13628746D02*
X21754563Y-13609698D01*
X21754563Y-13609698D02*
X21764087Y-13600174D01*
X21764087Y-13600174D02*
X21783134Y-13590650D01*
X21783134Y-13590650D02*
X21811706Y-13590650D01*
X21811706Y-13590650D02*
X21830753Y-13600174D01*
X21830753Y-13600174D02*
X21840277Y-13609698D01*
X21840277Y-13609698D02*
X21849801Y-13628746D01*
X21849801Y-13628746D02*
X21849801Y-13685888D01*
X21849801Y-13685888D02*
X21840277Y-13704936D01*
X21840277Y-13704936D02*
X21830753Y-13714460D01*
X21830753Y-13714460D02*
X21811706Y-13723984D01*
X21811706Y-13723984D02*
X21783134Y-13723984D01*
X21964087Y-13723984D02*
X21945039Y-13714460D01*
X21945039Y-13714460D02*
X21935515Y-13695412D01*
X21935515Y-13695412D02*
X21935515Y-13523984D01*
X22116468Y-13714460D02*
X22097420Y-13723984D01*
X22097420Y-13723984D02*
X22059325Y-13723984D01*
X22059325Y-13723984D02*
X22040277Y-13714460D01*
X22040277Y-13714460D02*
X22030753Y-13695412D01*
X22030753Y-13695412D02*
X22030753Y-13619222D01*
X22030753Y-13619222D02*
X22040277Y-13600174D01*
X22040277Y-13600174D02*
X22059325Y-13590650D01*
X22059325Y-13590650D02*
X22097420Y-13590650D01*
X22097420Y-13590650D02*
X22116468Y-13600174D01*
X22116468Y-13600174D02*
X22125992Y-13619222D01*
X22125992Y-13619222D02*
X22125992Y-13638269D01*
X22125992Y-13638269D02*
X22030753Y-13657317D01*
X22202182Y-13714460D02*
X22221230Y-13723984D01*
X22221230Y-13723984D02*
X22259325Y-13723984D01*
X22259325Y-13723984D02*
X22278373Y-13714460D01*
X22278373Y-13714460D02*
X22287896Y-13695412D01*
X22287896Y-13695412D02*
X22287896Y-13685888D01*
X22287896Y-13685888D02*
X22278373Y-13666841D01*
X22278373Y-13666841D02*
X22259325Y-13657317D01*
X22259325Y-13657317D02*
X22230753Y-13657317D01*
X22230753Y-13657317D02*
X22211706Y-13647793D01*
X22211706Y-13647793D02*
X22202182Y-13628746D01*
X22202182Y-13628746D02*
X22202182Y-13619222D01*
X22202182Y-13619222D02*
X22211706Y-13600174D01*
X22211706Y-13600174D02*
X22230753Y-13590650D01*
X22230753Y-13590650D02*
X22259325Y-13590650D01*
X22259325Y-13590650D02*
X22278373Y-13600174D01*
X22354563Y-13800174D02*
X22364087Y-13790650D01*
X22364087Y-13790650D02*
X22383134Y-13762079D01*
X22383134Y-13762079D02*
X22392658Y-13743031D01*
X22392658Y-13743031D02*
X22402182Y-13714460D01*
X22402182Y-13714460D02*
X22411706Y-13666841D01*
X22411706Y-13666841D02*
X22411706Y-13628746D01*
X22411706Y-13628746D02*
X22402182Y-13581127D01*
X22402182Y-13581127D02*
X22392658Y-13552555D01*
X22392658Y-13552555D02*
X22383134Y-13533508D01*
X22383134Y-13533508D02*
X22364087Y-13504936D01*
X22364087Y-13504936D02*
X22354563Y-13495412D01*
D12*
X17529500Y-13846500D02*
X17529500Y-13946500D01*
X17479500Y-13896500D02*
X17579500Y-13896500D01*
D11*
X17945039Y-13987984D02*
X17830753Y-13987984D01*
X17887896Y-13987984D02*
X17887896Y-13787984D01*
X17887896Y-13787984D02*
X17868848Y-13816555D01*
X17868848Y-13816555D02*
X17849801Y-13835603D01*
X17849801Y-13835603D02*
X17830753Y-13845127D01*
X18030753Y-13968936D02*
X18040277Y-13978460D01*
X18040277Y-13978460D02*
X18030753Y-13987984D01*
X18030753Y-13987984D02*
X18021229Y-13978460D01*
X18021229Y-13978460D02*
X18030753Y-13968936D01*
X18030753Y-13968936D02*
X18030753Y-13987984D01*
X18164086Y-13787984D02*
X18183134Y-13787984D01*
X18183134Y-13787984D02*
X18202182Y-13797508D01*
X18202182Y-13797508D02*
X18211705Y-13807031D01*
X18211705Y-13807031D02*
X18221229Y-13826079D01*
X18221229Y-13826079D02*
X18230753Y-13864174D01*
X18230753Y-13864174D02*
X18230753Y-13911793D01*
X18230753Y-13911793D02*
X18221229Y-13949888D01*
X18221229Y-13949888D02*
X18211705Y-13968936D01*
X18211705Y-13968936D02*
X18202182Y-13978460D01*
X18202182Y-13978460D02*
X18183134Y-13987984D01*
X18183134Y-13987984D02*
X18164086Y-13987984D01*
X18164086Y-13987984D02*
X18145039Y-13978460D01*
X18145039Y-13978460D02*
X18135515Y-13968936D01*
X18135515Y-13968936D02*
X18125991Y-13949888D01*
X18125991Y-13949888D02*
X18116467Y-13911793D01*
X18116467Y-13911793D02*
X18116467Y-13864174D01*
X18116467Y-13864174D02*
X18125991Y-13826079D01*
X18125991Y-13826079D02*
X18135515Y-13807031D01*
X18135515Y-13807031D02*
X18145039Y-13797508D01*
X18145039Y-13797508D02*
X18164086Y-13787984D01*
X18354563Y-13787984D02*
X18373610Y-13787984D01*
X18373610Y-13787984D02*
X18392658Y-13797508D01*
X18392658Y-13797508D02*
X18402182Y-13807031D01*
X18402182Y-13807031D02*
X18411705Y-13826079D01*
X18411705Y-13826079D02*
X18421229Y-13864174D01*
X18421229Y-13864174D02*
X18421229Y-13911793D01*
X18421229Y-13911793D02*
X18411705Y-13949888D01*
X18411705Y-13949888D02*
X18402182Y-13968936D01*
X18402182Y-13968936D02*
X18392658Y-13978460D01*
X18392658Y-13978460D02*
X18373610Y-13987984D01*
X18373610Y-13987984D02*
X18354563Y-13987984D01*
X18354563Y-13987984D02*
X18335515Y-13978460D01*
X18335515Y-13978460D02*
X18325991Y-13968936D01*
X18325991Y-13968936D02*
X18316467Y-13949888D01*
X18316467Y-13949888D02*
X18306944Y-13911793D01*
X18306944Y-13911793D02*
X18306944Y-13864174D01*
X18306944Y-13864174D02*
X18316467Y-13826079D01*
X18316467Y-13826079D02*
X18325991Y-13807031D01*
X18325991Y-13807031D02*
X18335515Y-13797508D01*
X18335515Y-13797508D02*
X18354563Y-13787984D01*
X18545039Y-13787984D02*
X18564086Y-13787984D01*
X18564086Y-13787984D02*
X18583134Y-13797508D01*
X18583134Y-13797508D02*
X18592658Y-13807031D01*
X18592658Y-13807031D02*
X18602182Y-13826079D01*
X18602182Y-13826079D02*
X18611705Y-13864174D01*
X18611705Y-13864174D02*
X18611705Y-13911793D01*
X18611705Y-13911793D02*
X18602182Y-13949888D01*
X18602182Y-13949888D02*
X18592658Y-13968936D01*
X18592658Y-13968936D02*
X18583134Y-13978460D01*
X18583134Y-13978460D02*
X18564086Y-13987984D01*
X18564086Y-13987984D02*
X18545039Y-13987984D01*
X18545039Y-13987984D02*
X18525991Y-13978460D01*
X18525991Y-13978460D02*
X18516467Y-13968936D01*
X18516467Y-13968936D02*
X18506944Y-13949888D01*
X18506944Y-13949888D02*
X18497420Y-13911793D01*
X18497420Y-13911793D02*
X18497420Y-13864174D01*
X18497420Y-13864174D02*
X18506944Y-13826079D01*
X18506944Y-13826079D02*
X18516467Y-13807031D01*
X18516467Y-13807031D02*
X18525991Y-13797508D01*
X18525991Y-13797508D02*
X18545039Y-13787984D01*
X18697420Y-13987984D02*
X18697420Y-13854650D01*
X18697420Y-13873698D02*
X18706944Y-13864174D01*
X18706944Y-13864174D02*
X18725991Y-13854650D01*
X18725991Y-13854650D02*
X18754563Y-13854650D01*
X18754563Y-13854650D02*
X18773610Y-13864174D01*
X18773610Y-13864174D02*
X18783134Y-13883222D01*
X18783134Y-13883222D02*
X18783134Y-13987984D01*
X18783134Y-13883222D02*
X18792658Y-13864174D01*
X18792658Y-13864174D02*
X18811705Y-13854650D01*
X18811705Y-13854650D02*
X18840277Y-13854650D01*
X18840277Y-13854650D02*
X18859325Y-13864174D01*
X18859325Y-13864174D02*
X18868848Y-13883222D01*
X18868848Y-13883222D02*
X18868848Y-13987984D01*
X18964086Y-13987984D02*
X18964086Y-13854650D01*
X18964086Y-13873698D02*
X18973610Y-13864174D01*
X18973610Y-13864174D02*
X18992658Y-13854650D01*
X18992658Y-13854650D02*
X19021229Y-13854650D01*
X19021229Y-13854650D02*
X19040277Y-13864174D01*
X19040277Y-13864174D02*
X19049801Y-13883222D01*
X19049801Y-13883222D02*
X19049801Y-13987984D01*
X19049801Y-13883222D02*
X19059325Y-13864174D01*
X19059325Y-13864174D02*
X19078372Y-13854650D01*
X19078372Y-13854650D02*
X19106944Y-13854650D01*
X19106944Y-13854650D02*
X19125991Y-13864174D01*
X19125991Y-13864174D02*
X19135515Y-13883222D01*
X19135515Y-13883222D02*
X19135515Y-13987984D01*
X19525991Y-13778460D02*
X19354563Y-14035603D01*
X19783134Y-13787984D02*
X19802182Y-13787984D01*
X19802182Y-13787984D02*
X19821229Y-13797508D01*
X19821229Y-13797508D02*
X19830753Y-13807031D01*
X19830753Y-13807031D02*
X19840277Y-13826079D01*
X19840277Y-13826079D02*
X19849801Y-13864174D01*
X19849801Y-13864174D02*
X19849801Y-13911793D01*
X19849801Y-13911793D02*
X19840277Y-13949888D01*
X19840277Y-13949888D02*
X19830753Y-13968936D01*
X19830753Y-13968936D02*
X19821229Y-13978460D01*
X19821229Y-13978460D02*
X19802182Y-13987984D01*
X19802182Y-13987984D02*
X19783134Y-13987984D01*
X19783134Y-13987984D02*
X19764087Y-13978460D01*
X19764087Y-13978460D02*
X19754563Y-13968936D01*
X19754563Y-13968936D02*
X19745039Y-13949888D01*
X19745039Y-13949888D02*
X19735515Y-13911793D01*
X19735515Y-13911793D02*
X19735515Y-13864174D01*
X19735515Y-13864174D02*
X19745039Y-13826079D01*
X19745039Y-13826079D02*
X19754563Y-13807031D01*
X19754563Y-13807031D02*
X19764087Y-13797508D01*
X19764087Y-13797508D02*
X19783134Y-13787984D01*
X19935515Y-13968936D02*
X19945039Y-13978460D01*
X19945039Y-13978460D02*
X19935515Y-13987984D01*
X19935515Y-13987984D02*
X19925991Y-13978460D01*
X19925991Y-13978460D02*
X19935515Y-13968936D01*
X19935515Y-13968936D02*
X19935515Y-13987984D01*
X20068848Y-13787984D02*
X20087896Y-13787984D01*
X20087896Y-13787984D02*
X20106944Y-13797508D01*
X20106944Y-13797508D02*
X20116468Y-13807031D01*
X20116468Y-13807031D02*
X20125991Y-13826079D01*
X20125991Y-13826079D02*
X20135515Y-13864174D01*
X20135515Y-13864174D02*
X20135515Y-13911793D01*
X20135515Y-13911793D02*
X20125991Y-13949888D01*
X20125991Y-13949888D02*
X20116468Y-13968936D01*
X20116468Y-13968936D02*
X20106944Y-13978460D01*
X20106944Y-13978460D02*
X20087896Y-13987984D01*
X20087896Y-13987984D02*
X20068848Y-13987984D01*
X20068848Y-13987984D02*
X20049801Y-13978460D01*
X20049801Y-13978460D02*
X20040277Y-13968936D01*
X20040277Y-13968936D02*
X20030753Y-13949888D01*
X20030753Y-13949888D02*
X20021229Y-13911793D01*
X20021229Y-13911793D02*
X20021229Y-13864174D01*
X20021229Y-13864174D02*
X20030753Y-13826079D01*
X20030753Y-13826079D02*
X20040277Y-13807031D01*
X20040277Y-13807031D02*
X20049801Y-13797508D01*
X20049801Y-13797508D02*
X20068848Y-13787984D01*
X20202182Y-13787984D02*
X20325991Y-13787984D01*
X20325991Y-13787984D02*
X20259325Y-13864174D01*
X20259325Y-13864174D02*
X20287896Y-13864174D01*
X20287896Y-13864174D02*
X20306944Y-13873698D01*
X20306944Y-13873698D02*
X20316468Y-13883222D01*
X20316468Y-13883222D02*
X20325991Y-13902269D01*
X20325991Y-13902269D02*
X20325991Y-13949888D01*
X20325991Y-13949888D02*
X20316468Y-13968936D01*
X20316468Y-13968936D02*
X20306944Y-13978460D01*
X20306944Y-13978460D02*
X20287896Y-13987984D01*
X20287896Y-13987984D02*
X20230753Y-13987984D01*
X20230753Y-13987984D02*
X20211706Y-13978460D01*
X20211706Y-13978460D02*
X20202182Y-13968936D01*
X20421229Y-13987984D02*
X20459325Y-13987984D01*
X20459325Y-13987984D02*
X20478372Y-13978460D01*
X20478372Y-13978460D02*
X20487896Y-13968936D01*
X20487896Y-13968936D02*
X20506944Y-13940365D01*
X20506944Y-13940365D02*
X20516468Y-13902269D01*
X20516468Y-13902269D02*
X20516468Y-13826079D01*
X20516468Y-13826079D02*
X20506944Y-13807031D01*
X20506944Y-13807031D02*
X20497420Y-13797508D01*
X20497420Y-13797508D02*
X20478372Y-13787984D01*
X20478372Y-13787984D02*
X20440277Y-13787984D01*
X20440277Y-13787984D02*
X20421229Y-13797508D01*
X20421229Y-13797508D02*
X20411706Y-13807031D01*
X20411706Y-13807031D02*
X20402182Y-13826079D01*
X20402182Y-13826079D02*
X20402182Y-13873698D01*
X20402182Y-13873698D02*
X20411706Y-13892746D01*
X20411706Y-13892746D02*
X20421229Y-13902269D01*
X20421229Y-13902269D02*
X20440277Y-13911793D01*
X20440277Y-13911793D02*
X20478372Y-13911793D01*
X20478372Y-13911793D02*
X20497420Y-13902269D01*
X20497420Y-13902269D02*
X20506944Y-13892746D01*
X20506944Y-13892746D02*
X20516468Y-13873698D01*
X20687896Y-13854650D02*
X20687896Y-13987984D01*
X20640277Y-13778460D02*
X20592658Y-13921317D01*
X20592658Y-13921317D02*
X20716468Y-13921317D01*
X20783134Y-13787984D02*
X20783134Y-13826079D01*
X20859325Y-13787984D02*
X20859325Y-13826079D01*
X21154563Y-14064174D02*
X21145039Y-14054650D01*
X21145039Y-14054650D02*
X21125991Y-14026079D01*
X21125991Y-14026079D02*
X21116468Y-14007031D01*
X21116468Y-14007031D02*
X21106944Y-13978460D01*
X21106944Y-13978460D02*
X21097420Y-13930841D01*
X21097420Y-13930841D02*
X21097420Y-13892746D01*
X21097420Y-13892746D02*
X21106944Y-13845127D01*
X21106944Y-13845127D02*
X21116468Y-13816555D01*
X21116468Y-13816555D02*
X21125991Y-13797508D01*
X21125991Y-13797508D02*
X21145039Y-13768936D01*
X21145039Y-13768936D02*
X21154563Y-13759412D01*
X21325991Y-13787984D02*
X21230753Y-13787984D01*
X21230753Y-13787984D02*
X21221230Y-13883222D01*
X21221230Y-13883222D02*
X21230753Y-13873698D01*
X21230753Y-13873698D02*
X21249801Y-13864174D01*
X21249801Y-13864174D02*
X21297420Y-13864174D01*
X21297420Y-13864174D02*
X21316468Y-13873698D01*
X21316468Y-13873698D02*
X21325991Y-13883222D01*
X21325991Y-13883222D02*
X21335515Y-13902269D01*
X21335515Y-13902269D02*
X21335515Y-13949888D01*
X21335515Y-13949888D02*
X21325991Y-13968936D01*
X21325991Y-13968936D02*
X21316468Y-13978460D01*
X21316468Y-13978460D02*
X21297420Y-13987984D01*
X21297420Y-13987984D02*
X21249801Y-13987984D01*
X21249801Y-13987984D02*
X21230753Y-13978460D01*
X21230753Y-13978460D02*
X21221230Y-13968936D01*
X21573611Y-13987984D02*
X21573611Y-13787984D01*
X21659325Y-13987984D02*
X21659325Y-13883222D01*
X21659325Y-13883222D02*
X21649801Y-13864174D01*
X21649801Y-13864174D02*
X21630753Y-13854650D01*
X21630753Y-13854650D02*
X21602182Y-13854650D01*
X21602182Y-13854650D02*
X21583134Y-13864174D01*
X21583134Y-13864174D02*
X21573611Y-13873698D01*
X21783134Y-13987984D02*
X21764087Y-13978460D01*
X21764087Y-13978460D02*
X21754563Y-13968936D01*
X21754563Y-13968936D02*
X21745039Y-13949888D01*
X21745039Y-13949888D02*
X21745039Y-13892746D01*
X21745039Y-13892746D02*
X21754563Y-13873698D01*
X21754563Y-13873698D02*
X21764087Y-13864174D01*
X21764087Y-13864174D02*
X21783134Y-13854650D01*
X21783134Y-13854650D02*
X21811706Y-13854650D01*
X21811706Y-13854650D02*
X21830753Y-13864174D01*
X21830753Y-13864174D02*
X21840277Y-13873698D01*
X21840277Y-13873698D02*
X21849801Y-13892746D01*
X21849801Y-13892746D02*
X21849801Y-13949888D01*
X21849801Y-13949888D02*
X21840277Y-13968936D01*
X21840277Y-13968936D02*
X21830753Y-13978460D01*
X21830753Y-13978460D02*
X21811706Y-13987984D01*
X21811706Y-13987984D02*
X21783134Y-13987984D01*
X21964087Y-13987984D02*
X21945039Y-13978460D01*
X21945039Y-13978460D02*
X21935515Y-13959412D01*
X21935515Y-13959412D02*
X21935515Y-13787984D01*
X22116468Y-13978460D02*
X22097420Y-13987984D01*
X22097420Y-13987984D02*
X22059325Y-13987984D01*
X22059325Y-13987984D02*
X22040277Y-13978460D01*
X22040277Y-13978460D02*
X22030753Y-13959412D01*
X22030753Y-13959412D02*
X22030753Y-13883222D01*
X22030753Y-13883222D02*
X22040277Y-13864174D01*
X22040277Y-13864174D02*
X22059325Y-13854650D01*
X22059325Y-13854650D02*
X22097420Y-13854650D01*
X22097420Y-13854650D02*
X22116468Y-13864174D01*
X22116468Y-13864174D02*
X22125992Y-13883222D01*
X22125992Y-13883222D02*
X22125992Y-13902269D01*
X22125992Y-13902269D02*
X22030753Y-13921317D01*
X22202182Y-13978460D02*
X22221230Y-13987984D01*
X22221230Y-13987984D02*
X22259325Y-13987984D01*
X22259325Y-13987984D02*
X22278373Y-13978460D01*
X22278373Y-13978460D02*
X22287896Y-13959412D01*
X22287896Y-13959412D02*
X22287896Y-13949888D01*
X22287896Y-13949888D02*
X22278373Y-13930841D01*
X22278373Y-13930841D02*
X22259325Y-13921317D01*
X22259325Y-13921317D02*
X22230753Y-13921317D01*
X22230753Y-13921317D02*
X22211706Y-13911793D01*
X22211706Y-13911793D02*
X22202182Y-13892746D01*
X22202182Y-13892746D02*
X22202182Y-13883222D01*
X22202182Y-13883222D02*
X22211706Y-13864174D01*
X22211706Y-13864174D02*
X22230753Y-13854650D01*
X22230753Y-13854650D02*
X22259325Y-13854650D01*
X22259325Y-13854650D02*
X22278373Y-13864174D01*
X22354563Y-14064174D02*
X22364087Y-14054650D01*
X22364087Y-14054650D02*
X22383134Y-14026079D01*
X22383134Y-14026079D02*
X22392658Y-14007031D01*
X22392658Y-14007031D02*
X22402182Y-13978460D01*
X22402182Y-13978460D02*
X22411706Y-13930841D01*
X22411706Y-13930841D02*
X22411706Y-13892746D01*
X22411706Y-13892746D02*
X22402182Y-13845127D01*
X22402182Y-13845127D02*
X22392658Y-13816555D01*
X22392658Y-13816555D02*
X22383134Y-13797508D01*
X22383134Y-13797508D02*
X22364087Y-13768936D01*
X22364087Y-13768936D02*
X22354563Y-13759412D01*
M02*
